<?xml version="1.0" encoding="UTF-8" standalone="no"?>
<!-- Created with Inkscape (http://www.inkscape.org/) -->

<svg
   xmlns:dc="http://purl.org/dc/elements/1.1/"
   xmlns:cc="http://creativecommons.org/ns#"
   xmlns:rdf="http://www.w3.org/1999/02/22-rdf-syntax-ns#"
   xmlns:svg="http://www.w3.org/2000/svg"
   xmlns="http://www.w3.org/2000/svg"
   xmlns:sodipodi="http://sodipodi.sourceforge.net/DTD/sodipodi-0.dtd"
   xmlns:inkscape="http://www.inkscape.org/namespaces/inkscape"
   width="744.09448819"
   height="1052.3622047"
   id="svg2"
   version="1.1"
   inkscape:version="0.48.1 r9760"
   inkscape:export-filename="/home/nykodemus/src/ld48-23/kwlogo.png"
   inkscape:export-xdpi="90.099998"
   inkscape:export-ydpi="90.099998"
   sodipodi:docname="New document 1">
  <defs
     id="defs4" />
  <sodipodi:namedview
     id="base"
     pagecolor="#ffffff"
     bordercolor="#666666"
     borderopacity="1.0"
     inkscape:pageopacity="0.0"
     inkscape:pageshadow="2"
     inkscape:zoom="0.89718479"
     inkscape:cx="296.16631"
     inkscape:cy="547.5714"
     inkscape:document-units="px"
     inkscape:current-layer="layer2"
     showgrid="false"
     inkscape:window-width="1024"
     inkscape:window-height="523"
     inkscape:window-x="0"
     inkscape:window-y="24"
     inkscape:window-maximized="1" />
  <metadata
     id="metadata7">
    <rdf:RDF>
      <cc:Work
         rdf:about="">
        <dc:format>image/svg+xml</dc:format>
        <dc:type
           rdf:resource="http://purl.org/dc/dcmitype/StillImage" />
        <dc:title></dc:title>
      </cc:Work>
    </rdf:RDF>
  </metadata>
  <g
     inkscape:label="Layer 1"
     inkscape:groupmode="layer"
     id="layer1" />
  <g
     inkscape:groupmode="layer"
     id="layer2"
     inkscape:label="Layer">
    <path
       style="fill:#ff2a2a;stroke:#000000;stroke-width:1px;stroke-linecap:butt;stroke-linejoin:miter;stroke-opacity:1"
       d="m 449.76546,549.98265 c -24.32375,-0.002 -48.67459,0.002 -72.98081,0 -4.40387,-3.56348 -11.23684,-0.89566 -16.77023,-1.69723 -18.1675,0.006 -36.3717,-0.008 -54.51335,0 -4.79528,3.79387 -12.19111,0.85608 -18.16842,1.69723 -7.79927,0.17096 -14.6428,2.73533 -22.56506,3.39446 -10.48759,2.804 -22.67337,2.0944 -32.24733,6.78891 -7.62328,0.58496 -14.68026,2.62768 -21.21536,5.9403 -6.10126,1.32444 -10.6852,6.24415 -16.12366,9.33475 -6.27608,3.38294 -9.90451,6.55004 -12.72921,11.03199 -4.97967,3.92247 -2.27471,15.84114 0.84861,19.51812 0.39685,5.33744 4.16359,11.4138 6.84405,14.3867 0.65356,6.1898 8.17653,7.11791 6.47412,10.0559 6.57737,3.57339 10.34765,3.66162 15.53471,7.80474 6.52203,0.84634 10.80013,2.91882 16.97228,5.09168 8.09812,2.45856 16.69178,3.28711 23.76119,6.78891 10.3885,0.14918 19.87307,4.33165 30.84914,3.39446 14.04333,-0.0198 28.09627,0.029 42.13167,0 8.86027,-2.45657 18.29217,-3.69744 27.58267,-4.96877 9.79485,-2.41351 20.91465,-4.29226 31.44281,-5.02741 9.97341,-3.34034 19.47155,-3.98276 29.23039,-6.9761 7.59023,-0.89875 12.15344,-2.79868 18.66951,-5.09169 4.55971,-3.47421 11.06044,-5.65628 15.27505,-7.63753 3.81207,-2.48147 8.16408,-5.59398 11.80111,-7.74779 5.3902,-1.7447 11.10746,-3.03815 16.20315,-5.83003 4.86705,-2.56707 9.78214,-5.17461 12.72922,-9.33475 4.94393,-1.83819 5.82946,-10.99315 1.69722,-13.57783 -0.84582,-5.47695 -9.74755,-13.20035 -7.92709,-15.6233 -3.38387,-5.66498 -3.14059,-13.35505 -11.40784,-13.22958 -8.77835,-0.01 -17.98155,0.0132 -26.49023,0 4.07946,-2.59359 8.41978,-12.60297 0.76388,-6.45273 -0.62063,8.63627 -21.46985,3.38904 -7.55279,3.05828 -0.28879,4.3281 8.47024,-4.18672 11.8806,-5.09169 z"
       id="path3069"
       inkscape:connector-curvature="0" />
    <path
       style="fill:#ff5555;stroke:#000000;stroke-width:1px;stroke-linecap:butt;stroke-linejoin:miter;stroke-opacity:1"
       d="m 171.42004,449.84619 c 2.90569,4.31178 -2.00638,9.96449 -0.73087,1.61227 3.25539,-1.32876 -1.06596,10.35631 -3.00466,12.73459 -0.6359,8.72972 -11.16638,16.03379 -5.15575,24.96531 2.21973,9.02398 15.15292,15.42896 10.51116,27.56179 -2.03808,10.0854 -2.21902,20.76732 -1.66344,31.30885 -1.69681,9.2414 3.31489,17.40618 9.82336,22.65872 6.33604,6.55773 13.86981,12.44765 21.78042,15.33743 8.51893,2.83837 19.42848,4.85277 29.11752,6.39063 10.26966,-0.24235 22.12234,4.3999 31.33127,0.43113 9.78283,-0.27111 15.70704,-5.36735 25.24767,-9.39945 7.07831,-4.46308 11.72153,-10.17994 15.12712,-18.18975 5.89414,-8.29931 4.22819,-19.96857 5.09473,-29.83979 -3.30703,-7.83583 -0.7164,-18.56507 -6.45286,-25.46325 -2.76634,-8.44365 -0.98686,-19.01742 -3.79378,-26.06977 -1.23137,-9.75074 0.61415,-20.81697 -5.78687,-29.17205 -6.79055,-4.27904 -10.87545,4.40404 -18.02661,5.69441 -3.8738,3.50338 -10.54322,6.50107 -16.34674,10.85591 -15.33183,1.60711 -30.90868,0.15682 -46.33819,0.64699 -5.42712,-3.36062 -12.65169,-8.62916 -18.93757,-12.03626 -5.86256,-2.28851 -11.05738,-6.37029 -17.80698,-9.22993 -1.32964,-0.26592 -2.65929,-0.53185 -3.98893,-0.79778 z"
       id="path3067"
       inkscape:connector-curvature="0" />
    <path
       style="fill:#ff5555;stroke:#000000;stroke-width:1px;stroke-linecap:butt;stroke-linejoin:miter;stroke-opacity:1"
       d="m 488.80171,578.83553 c 5.53103,-13.90377 11.47056,-28.06925 22.41712,-38.54014 9.431,-12.60734 22.70403,-22.46192 26.66018,-38.71733 4.46363,-10.94571 6.75618,-21.7522 20.50318,-21.96413 7.40628,-1.16987 10.63133,-2.85147 1.47834,-5.37467 -2.97341,-3.1687 -15.03335,-15.04757 0.36033,-14.69941 9.57433,-5.64084 19.99865,-20.71298 18.50123,-30.08374 -13.13687,2.35752 7.21459,-4.46112 9.03191,-10.26948 11.71295,-8.99777 -16.77904,-7.33567 -3.33705,-13.13707 5.81304,-5.46609 8.25079,-11.56396 14.47208,-15.5676 2.4714,-8.33299 -12.65638,-3.91089 -0.89133,-11.19231 11.39984,-11.02045 -14.70865,-12.57792 -5.76885,-18.16678 -0.99988,-9.22862 -8.29247,-22.39929 -14.95805,-12.58575 -4.56609,-0.13504 -7.55882,21.3759 -15.92019,8.41592 -4.96631,-7.00524 4.02013,22.16636 -8.05423,13.12343 -18.00957,-6.17505 -0.67595,22.86923 -17.0096,20.40284 -11.63987,3.01781 -8.05214,17.94125 -3.4051,27.75361 -5.8059,2.41425 -21.50889,-7.03205 -12.02721,6.1882 -0.28116,8.98403 14.35328,24.41537 -3.03583,20.32135 -12.55128,5.31801 -7.18447,24.76198 -8.62567,36.78466 -1.86504,13.68165 -12.52831,23.81562 -20.36137,34.64078 -6.19265,11.19386 -25.45331,17.14909 -19.83547,33.76361 4.63762,11.11047 8.83798,15.53572 16.41076,24.66049 1.1316,1.41451 2.26321,2.82901 3.39482,4.24352 z"
       id="path3071"
       inkscape:connector-curvature="0" />
    <path
       style="fill:#ff8080;stroke:#000000;stroke-width:1px;stroke-linecap:butt;stroke-linejoin:miter;stroke-opacity:1"
       d="m 178.20896,600.8995 c 1.2705,7.29386 -7.76423,2.40415 -11.29152,4.81411 -5.25931,0.74983 -10.00423,2.89504 -15.10509,4.08541 -7.75026,2.89398 -15.37296,6.09231 -22.57667,10.19358 -5.97334,2.82306 -12.18353,5.62696 -17.58173,9.22351 -6.1181,1.38242 -9.64419,7.84653 -15.760911,9.08664 -6.514998,-0.53291 -2.160605,-9.55719 -6.107028,-12.88529 -5.127511,-2.4749 -11.500273,-0.49885 -16.582874,1.57914 -5.174682,1.01542 -6.092111,5.34023 -7.153902,10.14163 -0.774618,5.20872 9.259097,2.27354 8.32301,2.47827 -2.970112,3.60691 -0.999796,13.97329 4.662685,12.05247 1.666036,-1.67257 -0.316537,5.45461 0.937955,7.02939 0.154457,4.01328 3.195769,10.92409 7.241133,8.46169 5.996611,1.08124 8.60303,-3.88576 13.235422,-6.15005 3.40335,-2.97114 7.73141,-4.10842 11.98644,-5.21344 5.03733,-0.13283 0.74901,-3.66147 0.6502,-3.92322 3.71367,4.56098 10.22747,-0.38119 14.39051,-1.19139 5.77965,-0.70551 11.31865,-2.4115 16.95682,-3.9772 5.06981,-1.06562 9.88039,-1.3303 14.93667,-2.77827 4.93078,-0.63094 8.70988,-2.76604 13.51949,-4.16881 5.55402,-2.22704 9.13777,-6.40046 15.51605,-6.70251 3.41497,-1.8091 7.32709,-2.97675 10.23555,-4.62667 -4.1778,-3.60255 -2.40863,-9.67957 -5.21775,-13.86431 -0.95068,-3.71057 -3.41554,-7.5057 -5.84394,-10.10202 -3.03127,-1.43384 -6.52673,-1.69886 -9.37052,-3.56266 z"
       id="path3073"
       inkscape:connector-curvature="0" />
    <path
       style="fill:#ff5555;stroke:#000000;stroke-width:1px;stroke-linecap:butt;stroke-linejoin:miter;stroke-opacity:1"
       d="m 235.91471,643.3302 c -6.8792,-0.14726 -1.47076,7.59168 -2.45243,10.90152 -2.4634,6.85288 -2.15926,14.39717 -5.06824,21.1288 -1.40161,5.01117 -0.42165,10.94848 -4.31849,15.01796 -2.22106,3.93755 -5.15215,7.66287 -5.66542,12.18863 -0.56025,1.91008 -3.45405,6.33326 -4.65107,2.46027 -0.39513,1.3811 -5.27495,1.3622 -6.61281,3.78479 -3.52328,3.4423 -5.00984,9.16374 -2.76236,13.68929 2.46226,2.44738 6.0391,-2.09498 7.8639,-2.03738 1.7031,-2.37625 -1.80197,2.21602 0.2087,3.18855 2.83007,3.55991 7.32215,5.50141 11.48078,6.60063 1.7818,4.20904 8.43569,-0.57561 12.27856,-0.23542 4.72134,-0.0675 9.10443,-3.60107 13.83949,-1.32436 4.45664,-0.76665 3.2043,-6.78076 0.2763,-8.2873 -1.09194,-4.61881 -4.88793,-8.03682 -8.83817,-10.30731 -3.37571,-2.32078 -7.75304,0.0552 -9.53669,1.66611 -1.53447,-3.7941 -4.18033,-7.09984 -7.83441,-9.08576 -3.93397,-1.14871 -5.88007,6.07535 -9.99946,3.61692 -3.48196,-0.2705 2.5586,-0.69455 3.62755,-1.49583 3.39431,-0.72426 5.44013,2.2517 8.94878,1.55632 4.21702,1.18091 8.91379,2.35976 12.63414,3.85865 -0.12337,0.92423 4.87863,2.71178 3.36257,-0.36396 -0.96878,-3.50808 1.84998,-6.46895 1.97384,-9.76481 2.79191,-3.10313 1.1779,-7.11455 2.80761,-10.76813 2.23173,-4.08793 1.19786,-8.75669 4.15726,-12.5306 2.73441,-4.47799 5.05783,-9.29334 6.84613,-14.22988 1.20501,-2.392 -2.10457,-2.97873 1.08324,-4.78192 0.74407,-1.43812 -2.8394,-1.0291 -1.5236,-3.31969 1.37339,-2.51465 1.73536,-5.38091 0.25862,-7.48336 1.03077,-5.44432 -4.49148,-8.5095 -9.05497,-9.04296 -4.85081,-0.006 -9.53541,2.55303 -13.32935,5.40023 z"
       id="path3075"
       inkscape:connector-curvature="0" />
    <path
       style="fill:#ff5555;stroke:#000000;stroke-width:1px;stroke-linecap:butt;stroke-linejoin:miter;stroke-opacity:1"
       d="m 386.96802,646.72466 c 7.0635,6.87588 13.31108,14.78574 22.48986,18.94239 10.75175,4.6186 22.18683,7.594 33.70913,9.63183 8.6206,3.52388 26.43944,3.43955 23.56259,16.94646 -2.94241,9.54965 -2.10945,17.45132 -2.80773,25.93789 -0.15508,8.20199 -4.38847,21.06715 5.95197,24.50535 9.66047,5.69365 6.89218,-7.25941 13.20814,-8.42012 2.584,6.33163 18.80402,4.89718 9.03034,-1.825 -5.35667,-7.3176 14.7079,-2.81853 6.92789,-11.92912 -5.43277,-5.86067 -14.9069,-4.22158 -18.17711,-13.28864 -8.69651,-8.51587 -4.67862,-19.59437 -3.86372,-29.06515 6.75149,-9.21783 -5.55461,-15.61096 -13.31108,-16.65896 -9.58826,-2.93962 -19.15275,-6.64943 -28.42545,-9.87653 -10.71652,-2.27273 -20.59501,-8.60077 -31.76752,-8.59736 -5.39364,2.01721 -10.85897,2.36068 -16.52731,3.69696 z"
       id="path3077"
       inkscape:connector-curvature="0" />
    <path
       style="fill:#ff2a2a;stroke:#000000;stroke-width:1px;stroke-linecap:butt;stroke-linejoin:miter;stroke-opacity:1"
       d="m 380.1791,609.38564 c 8.88312,12.60153 20.42784,22.7143 33.76303,30.18612 14.83848,7.76498 31.89822,12.42299 48.65761,12.29695 12.84014,0.002 26.14127,0.21714 38.49695,3.94094 15.03383,7.83224 16.14554,27.15309 20.20967,41.74929 6.08813,14.53363 -4.33206,30.15557 3.70122,43.51275 7.5232,1.26169 8.409,-13.55845 13.46979,0.10603 10.17405,5.39474 13.30899,-1.92419 25.44454,1.512 15.13606,-11.53178 -13.05163,-23.27813 -17.85012,-32.18511 0.88756,-10.41809 -8.97239,-7.56936 -12.32808,-8.66451 -4.76462,-15.63832 -1.58757,-32.30489 -3.01454,-48.38363 -3.39169,-16.35899 -20.48521,-29.59662 -37.75673,-28.97073 -23.57548,-2.76116 -46.34947,-10.19736 -69.09364,-16.69858 -14.84371,-5.04922 -29.1471,6.74883 -43.6997,1.59848 l 0,0 z"
       id="path3079"
       inkscape:connector-curvature="0" />
    <path
       style="fill:#7ce800;stroke:#000000;stroke-width:1px;stroke-linecap:butt;stroke-linejoin:miter;stroke-opacity:1"
       d="m 324.17058,548.28542 c 2.26297,-1.69723 4.52594,-3.39445 6.78891,-5.09168 2.4125,-7.98309 13.12271,-8.54319 19.66688,-6.96293 5.43428,1.25111 9.24194,6.00198 14.74802,7.31109 5.51043,2.52981 10.99435,7.24321 11.43719,12.84198 0.73895,5.17859 3.16759,10.27714 1.22518,15.59859 -1.4161,5.47142 -7.0787,11.42436 -11.35478,13.11671 -0.92779,-1.61806 -4.13909,-1.19378 -3.86205,-5.241 -0.0856,-6.86681 2.95606,6.40617 -3.28019,4.17786 -3.72953,-0.18178 -8.28564,-6.55938 -6.20985,-7.13425 -1.74749,8.04363 -9.52974,0.18025 -7.64005,-4.99617 -2.57847,-5.44527 0.11569,-11.59229 -1.88059,-16.88875 -1.30084,-6.69292 -8.70559,-4.50597 -13.89879,-5.2219 -1.93475,-0.42037 -3.80801,-1.07765 -5.73988,-1.50955 z"
       id="path3081"
       inkscape:connector-curvature="0" />
    <path
       style="fill:#74e400;stroke:#000000;stroke-width:1px;stroke-linecap:butt;stroke-linejoin:miter;stroke-opacity:1"
       d="m 439.58209,555.07434 c 0.84787,1.33812 3.92708,8.03481 0.3634,5.33337 -0.82977,-2.06935 -0.26993,-6.98025 0.0884,-2.07201 1.12236,4.61197 2.83316,9.9748 -0.29,14.16799 -2.17774,2.66929 1.92249,11.08717 3.7081,6.50865 2.27855,-0.11988 3.8343,-0.59832 2.88055,-2.89953 3.79684,-2.75811 5.87133,2.0012 9.71168,1.84123 1.97631,2.88391 10.56369,4.91288 10.65098,-0.18029 1.57829,-0.85183 2.98527,-1.74255 0.65158,-2.68024 3.78187,0.75031 -1.22754,3.26728 2.68838,3.56572 4.99531,1.686 10.78,0.0258 8.54728,-6.08102 0.93073,-5.03678 -3.28364,-8.1793 -1.44383,-13.33081 -0.22032,-4.37108 -2.40196,-8.15944 -2.49841,-12.55847 -2.10063,-1.39862 -1.29871,-0.71921 -0.71254,-2.32438 -3.55593,-2.35228 -6.72884,-3.46978 -11.03715,-2.82653 -4.09367,-1.31091 -5.11696,2.6459 -9.06408,1.77577 -2.88851,2.26388 -7.4814,3.95467 -10.29425,7.83597 -1.20986,1.41782 -2.68136,2.56394 -3.95014,3.92458 z"
       id="path3083"
       inkscape:connector-curvature="0" />
    <path
       style="fill:#7ce800;stroke:#000000;stroke-width:1px;stroke-linecap:butt;stroke-linejoin:miter;stroke-opacity:1"
       d="m 436.18763,551.67988 c 9.97363,-5.17533 10.54213,-17.93258 13.68547,-27.45007 2.14774,-8.68428 5.09246,-16.91083 5.94536,-25.6738 3.39259,-10.20179 9.16404,-20.7391 8.29144,-31.73515 -11.7126,0.0181 -20.68797,9.04477 -31.47339,12.05786 -9.3285,-1.20279 -18.78717,-1.58325 -28.2237,-3.70498 -10.69598,-3.57892 -21.18484,-14.25871 -23.56796,-25.25993 -5.24585,-11.79375 -7.60469,8.8133 -10.76125,12.59088 -8.00691,9.26731 -18.24341,18.92331 -17.22221,32.31257 2.26671,8.22909 1.56268,16.1418 -0.25716,25.40704 1.62621,7.12617 4.23806,16.12221 7.49985,23.67383 8.55934,0.29169 15.34148,3.65073 22.18135,8.19511 10.43499,-7.14761 20.95544,3.6835 31.58246,5.06048 9.15543,4.39238 14.88228,-0.49328 22.31974,-5.47384 z"
       id="path3085"
       inkscape:connector-curvature="0" />
    <path
       style="fill:#000000;stroke:#000000;stroke-width:1px;stroke-linecap:butt;stroke-linejoin:miter;stroke-opacity:1"
       d="m 202.85676,510.66775 c -1.48613,0.37154 -4.08686,2.60073 -4.45839,1.1146 -0.37153,-1.48613 5.99026,-1.1146 4.45839,-1.1146 -1.85766,0.37154 -3.71532,0.74307 -5.57299,1.1146 0,0.37154 0.26272,0.85189 0,1.1146 -0.26271,0.26271 -0.85188,-0.26271 -1.11459,0 -0.26272,0.26271 0.16615,0.78229 0,1.1146 -0.23498,0.46995 -0.87962,0.64464 -1.1146,1.1146 -0.16616,0.3323 0,0.74306 0,1.11459 0,0.37154 0,0.74307 0,1.1146 0,0.37153 0,0.74307 0,1.1146 0,0.37153 -0.26272,0.85188 0,1.1146 0.37391,0.37391 1.85528,-0.37391 2.22919,0 0.26272,0.26271 -0.26271,0.85188 0,1.11459 0.26272,0.26272 0.74307,0 1.1146,0 0.27032,0 3.30795,0.0358 3.34379,0 0.26272,-0.26271 -0.26271,-0.85188 0,-1.11459 0.26272,-0.26272 0.85189,0.26271 1.1146,0 0.26271,-0.26272 -0.26271,-0.85189 0,-1.1146 0.26271,-0.26272 0.85189,0.26271 1.1146,0 0.371,-0.371 -0.371,-1.85819 0,-2.2292 0.26271,-0.26271 1.18746,0.36432 1.1146,0 -0.39239,-1.96191 -1.48613,-3.71532 -2.2292,-5.57299 z"
       id="path3087"
       inkscape:connector-curvature="0" />
    <path
       style="fill:#000000;stroke:#000000;stroke-width:1px;stroke-linecap:butt;stroke-linejoin:miter;stroke-opacity:1"
       d="m 249.66986,514.01155 c 0.37153,1.48613 2.60073,4.08686 1.1146,4.45839 -1.48613,0.37153 -2.19779,-5.54159 -1.1146,-4.45839 5.91795,5.91794 -0.43093,5.57299 3.34379,5.57299 0.52553,0 5.52247,0.0505 5.57299,0 0.26271,-0.26272 -0.26271,-0.85189 0,-1.1146 0.26271,-0.26272 0.85188,0.26271 1.1146,0 0.26271,-0.26272 0.26271,-0.85189 0,-1.1146 -0.26272,-0.26271 -0.85189,0.26271 -1.1146,0 -0.52543,-0.52543 0.52543,-1.70377 0,-2.22919 -0.26271,-0.26272 -0.85188,0.26271 -1.1146,0 -0.26271,-0.26272 0.26272,-0.85189 0,-1.1146 -0.26271,-0.26272 -0.85188,0.26271 -1.11459,0 -0.26272,-0.26272 0.26271,-0.85189 0,-1.1146 -0.52543,-0.52543 -1.70377,0.52543 -2.2292,0 -0.26271,-0.26271 0.36044,-1.20471 0,-1.1146 -1.61193,0.40299 -2.97226,1.48613 -4.45839,2.2292 z"
       id="path3089"
       inkscape:connector-curvature="0" />
    <path
       style="fill:none;stroke:#000000;stroke-width:1px;stroke-linecap:butt;stroke-linejoin:miter;stroke-opacity:1"
       d="m 242.98227,490.605 c 1.48613,0.37153 2.97226,0.74306 4.45839,1.1146 0.37154,0.37153 0.64465,0.87962 1.1146,1.11459 0.66462,0.33231 1.70377,-0.52542 2.2292,0 0.26271,0.26272 -0.26272,0.85189 0,1.1146 0.22786,0.22787 2.90186,-0.22096 3.34379,0 0.46996,0.23498 0.64464,0.87962 1.1146,1.1146 0.66462,0.33231 1.70377,-0.52543 2.22919,0 0.26272,0.26271 -0.26271,0.85188 0,1.1146 0.52543,0.52542 1.70377,-0.52543 2.2292,0 0.26271,0.26271 -0.26272,0.85188 0,1.11459 0.52542,0.52543 1.70377,-0.52542 2.22919,0 0.26272,0.26272 -0.26271,0.85189 0,1.1146 2.97226,0 -0.37153,-0.37153 1.1146,1.1146 0.52543,0.52543 1.70377,-0.52543 2.2292,0 0.26271,0.26271 -0.26272,0.85188 0,1.1146 2.97226,0 -0.37154,-0.37154 1.11459,1.11459 1.64003,0 0.85189,-0.26271 2.2292,1.1146"
       id="path3091"
       inkscape:connector-curvature="0" />
    <path
       style="fill:none;stroke:#000000;stroke-width:1px;stroke-linecap:butt;stroke-linejoin:miter;stroke-opacity:1"
       d="m 209.54435,489.4904 c -1.48613,0.74307 -3.71533,3.71533 -4.45839,2.2292 -0.74307,-1.48613 6.11993,-2.2292 4.45839,-2.2292 -2.00077,0 -3.6749,1.5965 -5.57299,2.2292 -0.35247,0.11748 -0.85189,-0.26272 -1.1146,0 -0.26271,0.26271 0.26271,0.85188 0,1.11459 -0.26271,0.26272 -0.78229,-0.16615 -1.1146,0 -0.46995,0.23498 -0.64464,0.87962 -1.11459,1.1146 -0.66462,0.33231 -1.70377,-0.52543 -2.2292,0 -0.26271,0.26271 0.26271,0.85189 0,1.1146 -0.52543,0.52543 -1.70377,-0.52543 -2.22919,0 -0.26272,0.26271 0.26271,0.85188 0,1.1146 -0.52543,0.52542 -1.70377,-0.52543 -2.2292,0 -0.26271,0.26271 0.26271,0.85188 0,1.11459 -0.52543,0.52543 -1.70377,-0.52542 -2.22919,0 -0.26272,0.26272 0.26271,0.85189 0,1.1146 -0.26272,0.26271 -0.85189,-0.26271 -1.1146,0 -0.26272,0.26271 0.26271,0.85189 0,1.1146 -0.52543,0.52543 -1.70377,-0.52543 -2.2292,0 -0.26271,0.26271 0.26272,0.85188 0,1.1146 -0.26271,0.26271 -1.1146,0.37153 -1.1146,0 0,-0.37154 0.74307,0 1.1146,0"
       id="path3093"
       inkscape:connector-curvature="0" />
    <path
       style="fill:none;stroke:#000000;stroke-width:1px;stroke-linecap:butt;stroke-linejoin:miter;stroke-opacity:1"
       d="m 176.10642,492.83419 c -0.30104,-1.23759 -0.80489,-2.70509 -0.24304,-3.90399 1.37328,0.21002 1.16362,2.27094 0.43739,3.07861 -0.80707,-1.02834 0.37736,-3.02205 -0.56919,-4.29563 -0.97541,-2.1969 -2.952,-4.04389 -3.03973,-6.5728 -1.17111,-3.13188 -1.3396,-6.55136 -0.95784,-9.84808 -1.80624,-2.00787 0.46476,-5.76259 3.07218,-5.00639 1.25282,0.844 2.34626,1.80593 3.62877,2.66363 1.36406,1.25134 2.46803,2.78988 4.03047,3.81958 3.21643,-0.23028 5.40202,2.71101 8.44937,3.15292 3.08294,0.63448 5.50112,2.94132 8.59794,3.53658"
       id="path3095"
       inkscape:connector-curvature="0" />
    <path
       style="fill:none;stroke:#000000;stroke-width:1px;stroke-linecap:butt;stroke-linejoin:miter;stroke-opacity:1"
       d="m 258.58664,483.91741 c 1.14282,-0.73019 2.04629,-1.88457 3.37286,-2.29476 1.57511,0.50748 -0.17091,2.38386 -1.30772,2.28863 -0.73057,0.35671 -2.35072,-0.16174 -1.07186,-0.90046 1.25667,-0.97496 2.69618,-1.68608 4.24715,-2.06485 1.37415,-0.40155 2.86924,-0.78472 3.71487,-2.03383 1.74147,-1.542 4.02939,-2.21048 6.03952,-3.30945 2.30455,-1.04153 4.34347,-2.61152 6.73041,-3.4795 1.00777,-0.84249 2.80445,-1.11291 3.61693,0.13359 0.79701,1.11567 0.0495,2.48461 1.24475,3.27519 0.58535,1.60805 -0.10248,3.33666 0.15976,4.98946 -0.10655,2.41754 0.0935,4.83916 0.0748,7.25281 -0.31538,2.17346 -1.95469,4.25213 -1.1406,6.5073 1.03364,1.58898 -1.27442,1.72445 -1.1596,3.0111"
       id="path3097"
       inkscape:connector-curvature="0" />
    <path
       style="fill:none;stroke:#000000;stroke-width:1px;stroke-linecap:butt;stroke-linejoin:miter;stroke-opacity:1"
       d="m 195.05458,540.76189 c -3.67998,-1.43975 -7.31575,-1.1146 -11.14598,-1.1146 -0.74306,0 -1.52426,0.23498 -2.22919,0 -0.49847,-0.16615 -0.61614,-0.94844 -1.1146,-1.1146 -0.70493,-0.23497 -1.48613,0 -2.2292,0 -2.22919,0 -4.45839,0 -6.68758,0 -0.74307,0 -1.48613,0 -2.2292,0 -0.37153,0 -0.76213,0.11749 -1.11459,0 -0.78814,-0.26271 -1.42323,-0.9131 -2.2292,-1.11459 -0.90639,-0.2266 -5.52078,0 -6.68758,0 -4.4584,0 -8.91679,0 -13.37518,0 -2.97226,0 -5.94452,0 -8.91678,0 -0.50196,0 -3.00458,-0.16961 -3.34379,0 -0.46996,0.23497 -0.64464,0.87962 -1.1146,1.11459 -0.76989,0.38495 -5.18174,-0.39124 -5.57298,0 -0.26272,0.26272 0.26271,0.85189 0,1.1146 -0.0449,0.0449 -4.04907,0 -4.4584,0"
       id="path3099"
       inkscape:connector-curvature="0" />
    <path
       style="fill:none;stroke:#000000;stroke-width:1px;stroke-linecap:butt;stroke-linejoin:miter;stroke-opacity:1"
       d="m 195.05458,549.67867 c -1.48613,0.37153 -4.08686,2.60073 -4.45839,1.1146 -0.37154,-1.48613 5.99026,-1.1146 4.45839,-1.1146 -1.89445,0 -3.70431,0.80315 -5.57299,1.1146 -0.70398,0.11733 -2.81125,-0.26627 -3.34379,0 -0.46996,0.23498 -0.64464,0.87962 -1.1146,1.1146 -0.89168,0.44583 -2.45212,-0.44584 -3.34379,0 -0.46996,0.23497 -0.64465,0.87962 -1.1146,1.11459 -0.70055,0.35028 -3.75784,-0.35027 -4.45839,0 -0.46996,0.23498 -0.64464,0.87962 -1.1146,1.1146 -0.66462,0.33231 -1.56458,-0.33231 -2.22919,0 -0.46996,0.23498 -0.64465,0.87962 -1.1146,1.1146 -0.73867,0.36933 -3.52422,-0.31139 -4.45839,0 -0.78814,0.26271 -1.44106,0.85188 -2.2292,1.1146 -0.93841,0.3128 -4.90939,-0.3318 -5.57298,0 -0.46996,0.23497 -0.61614,0.94844 -1.1146,1.11459 -0.5098,0.16994 -3.96242,-0.24798 -4.45839,0 -0.46996,0.23498 -0.64464,0.87962 -1.1146,1.1146 -0.89168,0.44584 -2.45212,-0.44584 -3.34379,0 -0.46996,0.23498 -0.61614,0.94844 -1.1146,1.1146 -0.70493,0.23498 -1.48613,0 -2.2292,0 -0.37153,0 -0.78228,-0.16616 -1.11459,0 -0.46996,0.23498 -0.61614,0.94844 -1.1146,1.1146 -0.70493,0.23497 -1.48613,0 -2.2292,0 -0.37153,0 -0.78229,-0.16616 -1.11459,0 -0.46996,0.23497 -0.61614,0.94844 -1.1146,1.11459 -5.07397,0 -0.0637,-0.52542 -3.34379,1.1146 -0.66462,0.33231 -1.56458,-0.33231 -2.2292,0 -0.46996,0.23498 -0.64464,0.87962 -1.1146,1.1146 -0.44193,0.22096 -3.11593,-0.22787 -3.34379,0 -0.26271,0.26271 0.26271,0.85188 0,1.1146 -0.52543,0.52542 -1.56458,-0.33231 -2.22919,0 -0.46996,0.23497 -0.64465,0.87962 -1.1146,1.11459 -0.33231,0.16616 -1.1146,0.37154 -1.1146,0 0,-0.37153 0.74306,0 1.1146,0"
       id="path3101"
       inkscape:connector-curvature="0" />
    <path
       style="fill:none;stroke:#000000;stroke-width:1px;stroke-linecap:butt;stroke-linejoin:miter;stroke-opacity:1"
       d="m 196.16918,558.59545 c -1.48613,0.37153 -4.08686,2.60073 -4.45839,1.1146 -0.37154,-1.48613 5.54158,-2.19779 4.45839,-1.1146 -1.41476,1.41475 -3.78345,1.33443 -5.57299,2.2292 -0.46996,0.23497 -0.64464,0.87962 -1.1146,1.11459 -0.33231,0.16616 -0.78229,-0.16615 -1.1146,0 -0.46995,0.23498 -0.64464,0.87962 -1.1146,1.1146 -0.66461,0.33231 -1.56457,-0.33231 -2.22919,0 -0.46996,0.23498 -0.64464,0.87962 -1.1146,1.1146 -0.33231,0.16615 -0.78229,-0.16616 -1.1146,0 -0.46995,0.23498 -0.64464,0.87962 -1.11459,1.1146 -0.33231,0.16615 -0.78229,-0.16616 -1.1146,0 -0.46996,0.23497 -0.64464,0.87962 -1.1146,1.11459 -0.33231,0.16616 -0.78229,-0.16615 -1.1146,0 -0.93991,0.46996 -1.35483,1.64629 -2.22919,2.2292 -0.5613,2.45564 -2.29294,0.58917 -3.34379,1.1146 -0.21336,0.10668 -4.35172,4.24503 -4.45839,4.45839 -0.16616,0.33231 0.16615,0.78229 0,1.1146 -0.23498,0.46995 -0.74307,0.74306 -1.1146,1.11459 -0.37153,0.37154 -0.74307,0.74307 -1.1146,1.1146 -0.5868,0.5868 -2.7485,3.04615 -3.34379,3.34379 -0.33231,0.16616 -0.78229,-0.16615 -1.1146,0 -1.33752,0.66876 -2.00628,2.67504 -3.34379,3.3438 -3.28005,1.64002 1.46746,-2.58206 -2.2292,1.11459 -0.37153,0.37154 -0.87962,0.64465 -1.1146,1.1146 -0.16615,0.33231 0.26272,0.85189 0,1.1146 -0.26271,0.26271 -0.78228,-0.16616 -1.11459,0 -4.63869,2.31934 1.19154,-0.077 -1.1146,2.22919 -0.26271,0.26272 -0.78229,-0.16615 -1.1146,0 -2.75462,1.37731 0.38474,1.1146 -2.22919,1.1146"
       id="path3103"
       inkscape:connector-curvature="0" />
    <path
       style="fill:none;stroke:#000000;stroke-width:1px;stroke-linecap:butt;stroke-linejoin:miter;stroke-opacity:1"
       d="m 261.93043,526.27212 c 1.48613,-0.74306 2.91569,-1.61211 4.45839,-2.22919 0.9635,-0.3854 2.35696,0.32894 3.3438,0 0.78814,-0.26272 1.42322,-0.91311 2.22919,-1.1146 0.72088,-0.18022 1.52426,0.23498 2.2292,0 0.49846,-0.16616 0.61613,-0.94844 1.11459,-1.1146 0.70494,-0.23498 1.50832,0.18022 2.2292,0 1.61193,-0.40298 2.88211,-1.70377 4.45839,-2.22919 0.35247,-0.11749 0.76213,0.11748 1.1146,0 1.57628,-0.52543 2.84645,-1.82622 4.45839,-2.2292 0.72088,-0.18022 1.52426,0.23498 2.22919,0 0.49847,-0.16615 0.61614,-0.94844 1.1146,-1.1146 0.70493,-0.23497 1.52426,0.23498 2.2292,0 0.49846,-0.16615 0.61613,-0.94844 1.11459,-1.11459 1.18439,-0.3948 3.27401,0.39479 4.45839,0 0.78814,-0.26272 1.44106,-0.85189 2.2292,-1.1146 0.70493,-0.23498 1.52426,0.23498 2.22919,0 0.78814,-0.26272 1.44106,-0.85189 2.2292,-1.1146 0.35247,-0.11749 0.78229,0.16615 1.1146,0 0.46995,-0.23498 0.64464,-0.87962 1.11459,-1.1146 0.33231,-0.16615 0.74307,0 1.1146,0 0.74307,0 1.52426,0.23498 2.2292,0 0.49846,-0.16615 0.64464,-0.87962 1.11459,-1.1146 0.33231,-0.16615 0.78229,0.16616 1.1146,0 0.46996,-0.23497 0.64464,-0.87961 1.1146,-1.11459 0.66462,-0.33231 1.56458,0.33231 2.22919,0 0.46996,-0.23498 0.64465,-0.87962 1.1146,-1.1146 0.70055,-0.35027 3.75784,0.35027 4.45839,0 0.46996,-0.23498 0.61614,-0.94844 1.1146,-1.1146 0.87138,-0.29046 6.07422,0.30668 6.68759,0 0.46995,-0.23498 0.64464,-0.87962 1.11459,-1.1146 0.89168,-0.44583 2.45212,0.44584 3.3438,0 0.46995,-0.23497 0.64464,-0.87962 1.11459,-1.11459 0.33231,-0.16616 0.74307,0 1.1146,0 0.37153,0 0.74307,0 1.1146,0"
       id="path3107"
       inkscape:connector-curvature="0" />
    <path
       style="fill:none;stroke:#000000;stroke-width:1px;stroke-linecap:butt;stroke-linejoin:miter;stroke-opacity:1"
       d="m 263.04503,538.53269 c 1.48613,-0.74306 2.91569,-1.61211 4.45839,-2.22919 0.34496,-0.13798 0.74307,0 1.1146,0 1.21703,0 4.85217,0.24027 5.57299,0 0.78814,-0.26271 1.44105,-0.85188 2.22919,-1.1146 0.35247,-0.11749 0.74307,0 1.1146,0 0.74306,0 1.48613,0 2.22919,0 0.74307,0 1.50832,0.18022 2.2292,0 0.80597,-0.20149 1.42323,-0.9131 2.22919,-1.1146 1.93522,-0.4838 4.75238,0.48381 6.68759,0 0.80597,-0.20149 1.42323,-0.9131 2.2292,-1.11459 1.93521,-0.48381 4.75237,0.4838 6.68758,0 0.80597,-0.2015 1.42323,-0.91311 2.2292,-1.1146 1.08131,-0.27033 2.28639,0.35247 3.34379,0 0.78814,-0.26271 1.44105,-0.85189 2.22919,-1.1146 1.08568,-0.36189 4.51122,0.35393 5.57299,0 0.78814,-0.26271 1.44106,-0.85188 2.2292,-1.1146 0.35246,-0.11748 0.76213,0.11749 1.11459,0 0.78814,-0.26271 1.44106,-0.85188 2.2292,-1.11459 0.35247,-0.11749 0.74307,0 1.1146,0 0.74306,0 1.52426,0.23497 2.22919,0 0.49847,-0.16616 0.61614,-0.94845 1.1146,-1.1146 0.70493,-0.23498 1.48613,0 2.2292,0 0.37153,0 0.78228,0.16615 1.11459,0 0.46996,-0.23498 0.64465,-0.87962 1.1146,-1.1146 0.60466,-0.30233 4.15341,0.30498 4.45839,0 1.48613,-1.48613 -1.85766,-1.1146 1.1146,-1.1146"
       id="path3109"
       inkscape:connector-curvature="0" />
    <path
       style="fill:none;stroke:#000000;stroke-width:1px;stroke-linecap:butt;stroke-linejoin:miter;stroke-opacity:1"
       d="m 263.04503,549.67867 c 1.48613,-0.74306 2.91569,-1.61211 4.45839,-2.22919 0.34496,-0.13799 0.74307,0 1.1146,0 0.37153,0 0.78229,-0.16616 1.1146,0 0.46995,0.23497 0.61613,0.94844 1.11459,1.11459 0.70494,0.23498 1.48613,0 2.2292,0 2.60073,0 5.20145,0 7.80218,0 0.74307,0 1.52426,-0.23497 2.2292,0 0.49846,0.16616 0.61613,0.94845 1.11459,1.1146 1.03258,0.34419 4.50497,-0.35601 5.57299,0 0.78814,0.26271 1.44106,0.85188 2.2292,1.1146 1.18438,0.39479 3.274,-0.3948 4.45839,0 0.49846,0.16615 0.64464,0.87962 1.1146,1.1146 0.28818,0.14409 5.89755,0 6.68758,0 0.37153,0 0.74307,0 1.1146,0 0.37153,0 0.78229,-0.16616 1.1146,0 0.46995,0.23497 0.64464,0.87962 1.11459,1.11459 0.59101,0.29551 4.81473,-0.25275 5.57299,0 0.49847,0.16616 0.64464,0.87962 1.1146,1.1146 0.70317,0.35158 4.86982,-0.35158 5.57299,0 0.46995,0.23498 0.64464,0.87962 1.1146,1.1146 0.66461,0.33231 1.56457,-0.33231 2.22919,0 0.46996,0.23498 0.64464,0.87962 1.1146,1.1146 0.33231,0.16615 0.78229,-0.16616 1.1146,0 0.46995,0.23497 0.64464,0.87962 1.11459,1.11459 0.66462,0.33231 1.70377,-0.52542 2.2292,0 0.26271,0.26272 0,0.74307 0,1.1146"
       id="path3111"
       inkscape:connector-curvature="0" />
    <path
       style="fill:#ffffff;stroke:#000000;stroke-width:1px;stroke-linecap:butt;stroke-linejoin:miter;stroke-opacity:1"
       d="m 66.875855,637.73188 c -0.608114,3.05536 -5.077977,3.15858 -6.687585,5.57299 -0.46083,0.69124 -0.527153,1.64175 -1.114598,2.22919 -0.587444,0.58745 -1.641751,0.52716 -2.229195,1.1146 -0.262713,0.26271 0.166154,0.78229 0,1.1146 -2.550538,5.10107 0.46197,-4.7297 -2.229195,3.34379 -0.117489,0.35247 0,0.74307 0,1.1146 -0.371533,0.37153 -0.87962,0.64464 -1.114598,1.1146 -0.166154,0.3323 0.166155,0.78228 0,1.11459 -0.234978,0.46996 -0.87962,0.64465 -1.114597,1.1146 -0.166155,0.33231 0.166154,0.78229 0,1.1146 -0.234978,0.46995 -0.87962,0.64464 -1.114598,1.1146 -0.166154,0.33231 0,0.74306 0,1.11459 -0.371532,0.37154 -0.87962,0.64465 -1.114598,1.1146 -0.166154,0.33231 0.262714,0.85189 0,1.1146 -0.262713,0.26271 -1.114597,0.37153 -1.114597,0 0,-0.37153 0.851884,0.26271 1.114597,0 0.262714,-0.26271 -0.166154,-0.78229 0,-1.1146 0.05809,-0.11618 2.171104,-2.11301 2.229196,-2.22919 0.166154,-0.33231 -0.166155,-0.78229 0,-1.1146 0.147968,-0.29594 3.047855,-3.19582 3.343792,-3.34379 0.332309,-0.16616 0.851885,0.26271 1.114598,0 0.262713,-0.26272 -0.262713,-0.85189 0,-1.1146 0.262713,-0.26271 0.782289,0.16615 1.114598,0 0.469955,-0.23498 0.644642,-0.87962 1.114597,-1.1146 0.332309,-0.16615 0.851885,0.26271 1.114598,0 0.262713,-0.26271 -0.262713,-0.85188 0,-1.1146 0.262713,-0.26271 0.851884,0.26272 1.114597,0 0.262713,-0.26271 -0.262713,-0.85188 0,-1.11459 0.525427,-0.52543 1.703769,0.52542 2.229196,0 0.262713,-0.26272 -0.262714,-0.85189 0,-1.1146 0.358366,-0.35837 1.870828,0.35837 2.229195,0 0.262713,-0.26271 -0.262713,-0.85189 0,-1.1146 0.525426,-0.52543 1.703769,0.52543 2.229195,0 0.262713,-0.26271 -0.262713,-0.85188 0,-1.1146 0.557299,-0.5573 2.786494,0.5573 3.343793,0 0.262713,-0.26271 0.262713,-0.85188 0,-1.11459 -0.262714,-0.26272 -0.851885,0.26271 -1.114598,0 -0.262713,-0.26272 0.166154,-0.78229 0,-1.1146 -0.968838,-1.93768 -2.229195,-3.71533 -3.343793,-5.57299 z"
       id="path3119"
       inkscape:connector-curvature="0" />
    <path
       style="fill:#ffffff;stroke:#000000;stroke-width:1px;stroke-linecap:butt;stroke-linejoin:miter;stroke-opacity:1"
       d="m 73.563441,651.10705 c -1.48613,0.74307 -3.715326,3.71533 -4.458391,2.2292 -0.743065,-1.48613 5.63328,-3.40409 4.458391,-2.2292 -1.531868,1.53187 -3.770444,2.1421 -5.572988,3.34379 -1.014635,0.67643 -2.355883,2.84984 -3.343793,3.3438 -0.332309,0.16615 -0.782289,-0.16616 -1.114597,0 -0.469956,0.23497 -0.743066,0.74306 -1.114598,1.11459 -0.371533,0.37154 -0.87962,0.64465 -1.114598,1.1146 -0.166154,0.33231 0.262713,0.85189 0,1.1146 -0.262713,0.26271 -0.782288,-0.16616 -1.114597,0 -0.469956,0.23498 -0.644642,0.87962 -1.114598,1.1146 -0.332309,0.16615 -0.851884,-0.26272 -1.114597,0 -0.262714,0.26271 0.262713,0.85188 0,1.11459 -0.262714,0.26272 -0.851885,-0.26271 -1.114598,0 -0.262713,0.26272 0.262713,0.85189 0,1.1146 -0.262713,0.26272 -0.851884,-0.26271 -1.114598,0 -0.262713,0.26272 0.262714,0.85189 0,1.1146 -0.262713,0.26271 -0.851884,-0.26271 -1.114597,0 -0.525427,0.52543 0.743065,2.22919 0,2.22919 -0.371533,0 -0.262713,-0.85188 0,-1.11459 0.262713,-0.26272 0.782289,0.16615 1.114597,0 0.469956,-0.23498 0.644642,-0.87962 1.114598,-1.1146 0.332309,-0.16615 0.782289,0.16615 1.114598,0 0.469955,-0.23498 0.644642,-0.87962 1.114597,-1.1146 0.664618,-0.33231 1.564578,0.33231 2.229195,0 0.469956,-0.23498 0.644642,-0.87962 1.114598,-1.1146 0.332309,-0.16615 0.782289,0.16616 1.114598,0 0.469955,-0.23497 0.644641,-0.87962 1.114597,-1.11459 0.332309,-0.16616 0.782289,0.16615 1.114598,0 0.469955,-0.23498 0.644642,-0.87962 1.114597,-1.1146 0.332309,-0.16616 0.743065,0 1.114598,0 0.371532,-0.37153 0.644642,-0.87962 1.114597,-1.1146 0.664618,-0.33231 1.703769,0.52543 2.229196,0 0.262713,-0.26271 -0.262714,-0.85188 0,-1.1146 0.525426,-0.52542 1.564577,0.33231 2.229195,0 0.407954,-0.20397 1.82124,-2.02521 2.229195,-2.22919 0.664618,-0.33231 1.703769,0.52543 2.229195,0 0.262713,-0.26271 -0.262713,-0.85189 0,-1.1146 2.97226,0 -0.371532,0.37153 1.114598,-1.1146 0.262713,-0.26271 0.851884,0.26272 1.114597,0 0.262713,-0.26271 0.262713,-0.85188 0,-1.11459 -0.262713,-0.26272 -0.782288,0.16615 -1.114597,0 -0.469956,-0.23498 -0.743065,-0.74307 -1.114598,-1.1146 -1.48613,-0.37153 -2.97226,-0.74307 -4.45839,-1.1146 z"
       id="path3121"
       inkscape:connector-curvature="0" />
    <path
       style="fill:#ffffff;stroke:#000000;stroke-width:1px;stroke-linecap:butt;stroke-linejoin:miter;stroke-opacity:1"
       d="m 83.594819,662.25303 c -1.48613,0.74306 -3.715325,3.71532 -4.45839,2.22919 -0.743065,-1.48613 5.633279,-3.40408 4.45839,-2.22919 -1.857663,1.11459 -3.715325,2.22919 -5.572988,3.34379 -0.371532,0 -0.782289,-0.16615 -1.114597,0 -4.638689,2.31934 1.191544,-0.077 -1.114598,2.22919 -0.262713,0.26272 -0.851884,-0.26271 -1.114598,0 -0.262713,0.26272 0.262714,0.85189 0,1.1146 -0.262713,0.26272 -0.851884,-0.26271 -1.114597,0 -0.262713,0.26272 0.262713,0.85189 0,1.1146 -0.262713,0.26271 -0.851885,-0.26271 -1.114598,0 -0.262713,0.26271 0.262713,0.85188 0,1.1146 -0.262713,0.26271 -0.851884,-0.26272 -1.114597,0 -0.262714,0.26271 0.262713,0.85188 0,1.1146 -0.262714,0.26271 -0.851885,-0.26272 -1.114598,0 -0.743065,0.74306 0.371533,1.85766 1.114598,1.11459 0.262713,-0.26271 -0.262714,-0.85188 0,-1.11459 0.268206,-0.26821 4.190183,0.2682 4.45839,0 0.262713,-0.26272 -0.262713,-0.85189 0,-1.1146 0.557299,-0.5573 2.786494,0.5573 3.343793,0 0.262713,-0.26272 -0.262713,-0.85189 0,-1.1146 0.227864,-0.22786 2.901864,0.22096 3.343792,0 0.469956,-0.23498 0.644642,-0.87962 1.114598,-1.1146 0.441929,-0.22096 3.115928,0.22787 3.343793,0 0.262713,-0.26271 0.166154,-0.78229 0,-1.1146 -0.968838,-1.93767 -2.229195,-3.71532 -3.343793,-5.57298 z"
       id="path3123"
       inkscape:connector-curvature="0" />
    <path
       style="fill:#ffffff;stroke:#000000;stroke-width:1px;stroke-linecap:butt;stroke-linejoin:miter;stroke-opacity:1"
       d="m 212.88814,709.06613 c 3.67477,-1.31737 0.51552,-3.77576 1.1146,-5.57299 0.26271,-0.78814 0.85188,-1.44106 1.11459,-2.2292 0.23498,-0.70493 -0.3323,-1.56458 0,-2.22919 0.23498,-0.46996 0.87962,-0.64464 1.1146,-1.1146 0.16616,-0.33231 -0.11749,-0.76213 0,-1.1146 0.26272,-0.78814 0.85189,-1.44105 1.1146,-2.22919 0.20484,-0.61451 -0.2383,-4.22009 0,-4.45839 0.26271,-0.26272 0.85188,0.26271 1.1146,0 0.26271,-0.26272 -0.26272,-0.85189 0,-1.1146 0.26271,-0.26271 0.85188,0.26271 1.11459,0 0.26272,-0.26271 -0.26271,-0.85189 0,-1.1146 0.26272,-0.26271 0.85189,0.26271 1.1146,0 0.26272,-0.26271 -0.26271,-0.85188 0,-1.1146 0.26272,-0.26271 0.85189,-0.26271 1.1146,0 0.26271,0.26272 0,0.74307 0,1.1146 0,0.79003 0.14409,6.39941 0,6.68759 -0.23498,0.46995 -0.87962,0.64464 -1.1146,1.11459 -0.14409,0.28818 0,5.89756 0,6.68759 0,0.37153 0,0.74307 0,1.1146 0,0.37153 0.26272,0.85188 0,1.1146 -1.48613,1.48613 -1.1146,-1.85767 -1.1146,1.11459 0,0.27032 0.0359,3.30795 0,3.3438 -0.26271,0.26271 -0.74306,0 -1.11459,0 -1.85767,0 -3.71533,0 -5.57299,0 z"
       id="path3125"
       inkscape:connector-curvature="0" />
    <path
       style="fill:#ffffff;stroke:#000000;stroke-width:1px;stroke-linecap:butt;stroke-linejoin:miter;stroke-opacity:1"
       d="m 231.8363,709.06613 c 3.26921,1.25519 3.57009,-3.14767 5.60264,-4.33567 2.87245,-1.04987 5.59715,-2.26206 8.56733,-2.94447 1.67136,-0.39814 -0.72713,-1.23074 1.58254,-1.55035 3.19014,-1.08265 6.58309,-2.02943 9.12238,-3.87959 1.28556,-0.3341 3.51026,-1.56151 1.71926,-0.0108 -0.98796,1.55158 -4.27123,3.11628 -5.97399,4.8958 -2.81208,1.21326 -4.23419,4.29873 -7.15054,4.94849 -1.08978,0.43641 1.1415,1.84983 -1.01365,1.92502 -3.35335,1.01713 -4.16998,5.86974 -7.79726,6.42753 -2.34006,-0.71243 -3.23367,-3.67192 -4.65871,-5.47597 z"
       id="path3127"
       inkscape:connector-curvature="0" />
    <path
       style="fill:#ffffff;stroke:#000000;stroke-width:1px;stroke-linecap:butt;stroke-linejoin:miter;stroke-opacity:1"
       d="m 248.55526,717.98291 c 0.37847,-6.39688 3.78345,-1.33443 5.57299,-2.2292 0.46996,-0.23498 0.64464,-0.87962 1.1146,-1.1146 0.33231,-0.16615 0.74306,0 1.1146,0 0.37153,0 0.74306,0 1.11459,0 0.50197,0 3.00459,0.16961 3.3438,0 0.46995,-0.23497 0.64464,-0.87962 1.11459,-1.11459 0.33231,-0.16616 0.74307,0 1.1146,0 0.37153,0 0.74307,0 1.1146,0 1.48613,0 2.97226,0 4.45839,0 0.37153,0 1.1146,-0.37154 1.1146,0 0,0.37153 -0.78229,-0.16616 -1.1146,0 -0.46996,0.23497 -0.64464,0.87962 -1.1146,1.11459 -0.33231,0.16616 -0.78229,-0.16615 -1.1146,0 -0.46995,0.23498 -0.64464,0.87962 -1.11459,1.1146 -0.33231,0.16616 -0.85189,-0.26271 -1.1146,0 -0.26271,0.26271 0.26271,0.85189 0,1.1146 -0.52543,0.52543 -1.56458,-0.33231 -2.2292,0 -0.46995,0.23498 -0.64464,0.87962 -1.11459,1.1146 -0.33231,0.16615 -0.85189,-0.26272 -1.1146,0 -0.26272,0.26271 0.26271,0.85188 0,1.11459 -0.26272,0.26272 -0.85189,-0.26271 -1.1146,0 -0.26271,0.26272 0.26271,0.85189 0,1.1146 -0.26271,0.26271 -0.85188,-0.26271 -1.1146,0 -0.26271,0.26271 0.26272,0.85189 0,1.1146 -0.52542,0.52543 -1.70377,-0.52543 -2.22919,0 -0.26272,0.26271 0.26271,0.85188 0,1.1146 -0.26272,0.26271 -0.85189,-0.26272 -1.1146,0 -0.26271,0.26271 0.26271,0.85188 0,1.11459 -0.26271,0.26272 -0.78229,-0.16615 -1.1146,0 -0.46995,0.23498 -0.64464,0.87962 -1.1146,1.1146 -0.3323,0.16616 -0.78228,-0.16615 -1.11459,0 -0.29019,0.14509 -1.35789,1.98591 -2.2292,1.1146 -0.26271,-0.26271 0,-0.74307 0,-1.1146 0,-0.37153 0,-0.74306 0,-1.1146 0,-1.85766 0,-3.71532 0,-5.57298 z"
       id="path3129"
       inkscape:connector-curvature="0" />
    <path
       style="fill:#ffffff;stroke:#000000;stroke-width:1px;stroke-linecap:butt;stroke-linejoin:miter;stroke-opacity:1"
       d="m 344.41065,576.42901 c 0,1.85767 0,3.71533 0,5.57299 0,0.37153 0.16616,0.78229 0,1.1146 -0.23497,0.46995 -0.87962,0.64464 -1.11459,1.1146 -0.35159,0.70316 0.35158,4.86982 0,5.57298 -0.23498,0.46996 -0.87962,0.64465 -1.1146,1.1146 -0.16961,0.33921 0,2.84183 0,3.34379 0,0.37154 -0.26271,0.85189 0,1.1146 0.26271,0.26271 0.85188,0.26271 1.1146,0 0.26271,-0.26271 -0.26272,-0.85188 0,-1.1146 0.26271,-0.26271 0.85188,0.26272 1.11459,0 0.52543,-0.52542 -0.52542,-1.70376 0,-2.22919 0.26272,-0.26271 0.85189,0.26271 1.1146,0 0.26272,-0.26271 -0.16615,-0.78229 0,-1.1146 0.23498,-0.46995 0.87962,-0.64464 1.1146,-1.1146 0.44584,-0.89167 -0.44584,-2.45211 0,-3.34379 0.23498,-0.46995 0.87962,-0.64464 1.1146,-1.1146 0.16615,-0.33231 -0.26272,-0.85188 0,-1.11459 0.26271,-0.26272 0.85188,0.26271 1.11459,0 0.26272,-0.26272 -0.26271,-0.85189 0,-1.1146 0.26272,-0.26271 0.78229,0.16615 1.1146,0 0.46996,-0.23498 0.64464,-0.87962 1.1146,-1.1146 0.33231,-0.16615 0.85188,0.26271 1.1146,0 0.26271,-0.26271 0,-0.74306 0,-1.1146 0,-0.37153 0,-0.74306 0,-1.11459 0,-0.37154 0.26271,-0.85189 0,-1.1146 -0.26272,-0.26272 -0.85189,-0.26272 -1.1146,0 -0.26271,0.26271 0.26271,0.85188 0,1.1146 -0.26271,0.26271 -0.74306,0 -1.1146,0 -0.37153,0 -0.79601,0.19115 -1.1146,0 -1.59293,-0.95576 -2.97226,-2.2292 -4.45839,-3.3438 z"
       id="path3131"
       inkscape:connector-curvature="0" />
    <path
       style="fill:#ffffff;stroke:#000000;stroke-width:1px;stroke-linecap:butt;stroke-linejoin:miter;stroke-opacity:1"
       d="m 354.44203,583.1166 c -4.6979,0.89356 -0.26737,3.87854 -1.11459,5.57299 -0.23498,0.46995 -0.87962,0.64464 -1.1146,1.11459 -0.16961,0.33921 0,2.84183 0,3.3438 0,2.51814 0.16615,-0.49847 -1.1146,3.34379 -0.20962,0.62885 0,2.61138 0,3.34379 0,0.37153 0,0.74307 0,1.1146 0,0.37153 -0.26271,0.85188 0,1.1146 1.63474,1.63474 1.00314,-2.11774 1.1146,-2.2292 0.26271,-0.26271 0.85188,0.26272 1.1146,0 0.26271,-0.26271 -0.16616,-0.78229 0,-1.1146 0.23497,-0.46995 0.87962,-0.64464 1.11459,-1.11459 0.16616,-0.33231 -0.16615,-0.78229 0,-1.1146 0.23498,-0.46996 0.87962,-0.64464 1.1146,-1.1146 0.16615,-0.33231 -0.26271,-0.85188 0,-1.1146 0.26271,-0.26271 0.85188,0.26272 1.1146,0 0.26271,-0.26271 -0.16616,-0.78228 0,-1.11459 0.23498,-0.46996 0.87962,-0.64465 1.1146,-1.1146 0.16615,-0.33231 0,-0.74307 0,-1.1146 0.37153,-0.37153 0.87962,-0.64464 1.11459,-1.1146 0.16616,-0.33231 -0.26271,-0.85188 0,-1.11459 0.26272,-0.26272 0.85189,0.26271 1.1146,0 0.5573,-0.5573 -0.5573,-2.7865 0,-3.3438 0.26271,-0.26271 0.85189,0.26272 1.1146,0 0.26271,-0.26271 0.26271,-0.85188 0,-1.11459 -0.26271,-0.26272 -0.74812,0.0611 -1.1146,0 -1.86867,-0.31145 -3.71532,-0.74307 -5.57299,-1.1146 z"
       id="path3133"
       inkscape:connector-curvature="0" />
    <path
       style="fill:#ffffff;stroke:#000000;stroke-width:1px;stroke-linecap:butt;stroke-linejoin:miter;stroke-opacity:1"
       d="m 364.47341,586.46039 c 0,1.48613 1.48613,4.45839 0,4.45839 -1.48613,0 -1.05085,-5.50924 0,-4.45839 0.37153,1.85766 0.74307,3.71533 1.1146,5.57299 -0.37153,0 -0.85189,-0.26271 -1.1146,0 -0.0448,0.0448 0,4.04907 0,4.45839 0,0.37153 0.26271,0.85188 0,1.1146 -0.26271,0.26271 -0.85188,-0.26272 -1.1146,0 -0.26271,0.26271 -0.26271,0.85188 0,1.11459 1.48613,1.48613 1.1146,-1.85766 1.1146,1.1146 0,0.37153 0,0.74307 0,1.1146 0,0.37153 -0.26271,0.85188 0,1.1146 0.26271,0.26271 0.74307,0 1.1146,0 3.39849,0 0.0151,-1.12967 1.1146,-2.2292 0.26271,-0.26271 0.85188,0.26272 1.11459,0 0.22787,-0.22786 -0.22096,-2.90186 0,-3.34379 0.23498,-0.46996 0.87962,-0.64464 1.1146,-1.1146 0.16616,-0.33231 0,-0.74306 0,-1.1146 0.37153,-0.37153 0.87962,-0.64464 1.1146,-1.11459 0.33231,-0.66462 -0.52543,-1.70377 0,-2.2292 0.26271,-0.26271 0.85188,0.26271 1.1146,0 0.22786,-0.22786 -0.22097,-2.90186 0,-3.34379 0.23497,-0.46996 0.87962,-0.64464 1.11459,-1.1146 0.16616,-0.33231 -0.26271,-0.85188 0,-1.1146 0.26272,-0.26271 0.85189,0.26272 1.1146,0 0.26272,-0.26271 0,-0.74306 0,-1.11459 0,-0.37154 0,-0.74307 0,-1.1146 0,-0.37153 0,-0.74307 0,-1.1146 0,-0.37153 -0.16615,-0.78229 0,-1.1146 0.14509,-0.29018 1.98591,-1.35788 1.1146,-2.22919 -0.87131,-0.87131 -1.93901,0.9695 -2.2292,1.1146 -0.3323,0.16615 -0.78228,-0.16616 -1.11459,0 -0.46996,0.23497 -0.64465,0.87962 -1.1146,1.11459 -0.33231,0.16616 -0.85189,-0.26271 -1.1146,0 -0.26271,0.26272 0.2321,0.82448 0,1.1146 -1.31292,1.64116 -2.97226,2.97226 -4.45839,4.45839 z"
       id="path3135"
       inkscape:connector-curvature="0" />
    <path
       style="fill:#ffffff;stroke:#000000;stroke-width:1px;stroke-linecap:butt;stroke-linejoin:miter;stroke-opacity:1"
       d="m 439.15145,576.42901 c -0.37153,1.48613 0.37153,4.82993 -1.1146,4.45839 -1.48613,-0.37153 1.1146,-5.99026 1.1146,-4.45839 0,1.89445 -0.80315,3.70432 -1.1146,5.57299 -0.12216,0.73296 0.33231,1.56458 0,2.2292 -0.23498,0.46995 -0.87962,0.64464 -1.1146,1.11459 -0.3323,0.66462 0.33231,1.56458 0,2.2292 -0.23497,0.46995 -0.87962,0.64464 -1.11459,1.1146 -0.16616,0.3323 0,0.74306 0,1.11459 0,0.37154 -0.26272,0.85189 0,1.1146 0.26271,0.26271 1.11459,-0.37153 1.11459,0 0,0.52543 -0.87962,0.64464 -1.11459,1.1146 -0.33231,0.66462 0.74306,2.22919 0,2.22919 -0.37154,0 0,-0.74306 0,-1.11459 0,-0.37154 -0.26272,-0.85189 0,-1.1146 0.26271,-0.26271 0.85188,0.26271 1.11459,0 0.26272,-0.26271 -0.26271,-0.85189 0,-1.1146 0.26272,-0.26271 0.85189,0.26271 1.1146,0 0.26272,-0.26271 -0.16615,-0.78229 0,-1.1146 0.23498,-0.46995 0.74307,-0.74306 1.1146,-1.11459 0.37153,-0.37154 0.64464,-0.87962 1.1146,-1.1146 0.33231,-0.16616 0.85188,0.26271 1.11459,0 0.26272,-0.26271 -0.16615,-0.78229 0,-1.1146 0.46996,-0.93991 1.75924,-1.28928 2.2292,-2.22919 0.16615,-0.33231 -0.16615,-0.78229 0,-1.1146 0.46996,-0.93991 1.75924,-1.28929 2.2292,-2.2292 0.16615,-0.33231 -0.26272,-0.85188 0,-1.11459 0.26271,-0.26272 0.85188,0.26271 1.11459,0 0.52543,-0.52543 -0.52542,-1.70377 0,-2.2292 0.26272,-0.26271 0.85189,0.26271 1.1146,0 0.26271,-0.26271 0,-0.74306 0,-1.1146 0,-0.37153 0.26271,-0.85188 0,-1.11459 -0.26271,-0.26272 -0.74306,0 -1.1146,0 -3.7362,0 -3.23182,-0.028 -7.80218,1.11459 z"
       id="path3137"
       inkscape:connector-curvature="0" />
    <path
       style="fill:#000400;stroke:#000000;stroke-width:1px;stroke-linecap:butt;stroke-linejoin:miter;stroke-opacity:1"
       d="m 456.98501,579.77281 c -0.37153,1.48613 0.37153,4.82992 -1.1146,4.45839 -1.48613,-0.37154 1.1146,-5.99026 1.1146,-4.45839 0,1.89445 -0.80315,3.70431 -1.1146,5.57298 -0.16328,0.9797 0.27016,5.03268 0,5.57299 -0.23497,0.46996 -1.11459,0.58917 -1.11459,1.1146 0,0.37153 0.85188,0.26271 1.11459,0 0.26272,-0.26271 -0.26271,-0.85189 0,-1.1146 0.26272,-0.26271 0.85189,0.26271 1.1146,0 0.26271,-0.26271 -0.16615,-0.78229 0,-1.1146 0.23498,-0.46995 0.87962,-0.64464 1.1146,-1.11459 0,-2.97226 -0.37153,0.37153 1.1146,-1.1146 0.26271,-0.26271 -0.26272,-0.85189 0,-1.1146 0.26271,-0.26271 0.85188,0.26271 1.11459,0 0.26272,-0.26271 -0.16615,-0.78229 0,-1.1146 0.23498,-0.46995 0.87962,-0.64464 1.1146,-1.11459 0.16616,-0.33231 -0.26271,-0.85189 0,-1.1146 0.26271,-0.26271 0.85189,0.26271 1.1146,0 0.52543,-0.52543 -0.52543,-1.70377 0,-2.2292 0.26271,-0.26271 0.74306,0 1.1146,0 0,-0.37153 -0.16616,-0.78229 0,-1.11459 0.46995,-0.93992 1.75924,-1.28929 2.22919,-2.2292 0.16616,-0.33231 -0.26271,-0.85188 0,-1.1146 0.26271,-0.26271 1.1146,-0.37153 1.1146,0 0,0.13113 -3.17988,-0.16391 -3.34379,0 -0.26272,0.26272 0.26271,0.85189 0,1.1146 -0.52543,0.52543 -1.53928,-0.27597 -2.2292,0 -1.5427,0.61708 -2.97226,1.48613 -4.45839,2.2292 z"
       id="path3139"
       inkscape:connector-curvature="0" />
    <path
       style="fill:#ffffff;stroke:#000000;stroke-width:1px;stroke-linecap:butt;stroke-linejoin:miter;stroke-opacity:1"
       d="m 469.24558,578.65821 c 0.37154,1.48613 0.81418,2.95627 1.1146,4.45839 0.0671,0.33566 0.0586,5.45583 0,5.57299 -0.23498,0.46995 -0.87962,0.64464 -1.1146,1.11459 -0.16615,0.33231 0.26272,0.85189 0,1.1146 -0.26271,0.26271 -0.85188,-0.26271 -1.11459,0 -0.52543,0.52543 0.52542,1.70377 0,2.2292 -0.26272,0.26271 -1.1146,0.37153 -1.1146,0 0,-0.37154 0.78229,0.16615 1.1146,0 0.46995,-0.23498 0.87962,-0.64465 1.11459,-1.1146 0.16616,-0.33231 -0.26271,-0.85189 0,-1.1146 0.26272,-0.26271 0.85189,0.26271 1.1146,0 0.26272,-0.26271 -0.16615,-0.78229 0,-1.1146 0.23498,-0.46995 0.87962,-0.64464 1.1146,-1.11459 0.16615,-0.33231 -0.26271,-0.85189 0,-1.1146 0.26271,-0.26271 0.85188,0.26271 1.1146,0 0.52542,-0.52543 -0.52543,-1.70377 0,-2.2292 0.26271,-0.26271 0.85188,0.26272 1.11459,0 1.22072,-1.22071 -4.95106,-6.19491 -4.45839,-6.68758 1.68219,-1.68219 3.53304,3.23442 5.57299,4.45839 0.63718,0.3823 -0.33231,-1.56458 0,-2.2292 0.46996,-0.93991 1.75924,-1.28928 2.2292,-2.22919 0.16615,-0.33231 -0.26272,-0.85189 0,-1.1146 0.26271,-0.26271 0.85188,0.26271 1.1146,0 0.26271,-0.26271 0.26271,-0.85188 0,-1.1146 -0.11146,-0.11146 -3.23234,-0.11146 -3.3438,0 -0.26271,0.26272 0.34496,0.97662 0,1.1146 -1.75895,0.70358 -3.71532,0.74307 -5.57299,1.1146 z"
       id="path3141"
       inkscape:connector-curvature="0" />
    <path
       style="fill:#ffffff;stroke:#000000;stroke-width:1px;stroke-linecap:butt;stroke-linejoin:miter;stroke-opacity:1"
       d="m 385.65077,550.79327 c 1.2047,4.81883 1.11459,2.92652 1.11459,5.57299 0,2.97226 0,5.94452 0,8.91678 0,0.37153 0,0.74306 0,1.11459 0,0.37154 -0.26271,0.85189 0,1.1146 0.26272,0.26272 0.74307,0 1.1146,0 0.37153,0 0.85188,0.26272 1.1146,0 0.26271,-0.26271 -0.26272,-0.85188 0,-1.1146 0.26271,-0.26271 0.85188,0.26272 1.1146,0 0.26271,-0.26271 -0.26272,-0.85188 0,-1.11459 0.26271,-0.26272 0.85188,0.26271 1.11459,0 0.5573,-0.5573 -0.5573,-2.7865 0,-3.3438 0.26272,-0.26271 0.85189,0.26272 1.1146,0 0.26271,-0.26271 -0.16615,-0.78228 0,-1.11459 0.23498,-0.46996 0.87962,-0.64465 1.1146,-1.1146 0.16615,-0.33231 -0.16616,-0.78229 0,-1.1146 0.5484,-1.09679 3.90999,-3.36159 4.45839,-4.45839 0.16615,-0.33231 0,-0.74306 0,-1.1146 0,-0.37153 -0.26271,-0.85188 0,-1.11459 0.26271,-0.26272 0.85188,0.26271 1.1146,0 0.26271,-0.26272 0,-0.74307 0,-1.1146 0,-0.37153 0.26271,-0.85189 0,-1.1146 -0.26272,-0.26271 -0.85189,-0.26271 -1.1146,0 -0.26271,0.26271 0.26271,0.85188 0,1.1146 -0.26271,0.26271 -0.74307,0 -1.1146,0 -0.37153,0 -0.74306,0 -1.1146,0 -0.37153,0 -0.85188,0.26271 -1.11459,0 -0.26272,-0.26272 0.26271,-0.85189 0,-1.1146 -0.15719,-0.15719 -3.11516,-0.11432 -3.3438,0 -4.3309,2.16545 5.53565,1.1146 -5.57298,1.1146 z"
       id="path3143"
       inkscape:connector-curvature="0" />
    <path
       style="fill:#ffffff;stroke:#000000;stroke-width:1px;stroke-linecap:butt;stroke-linejoin:miter;stroke-opacity:1"
       d="m 410.17191,556.36626 c 0,4.45839 0,8.91678 0,13.37517 0,0.37153 0,0.74306 0,1.11459 0,0.37154 -0.26271,0.85189 0,1.1146 0.26272,0.26272 0.74307,0 1.1146,0 0.37153,0 0.85188,0.26272 1.1146,0 0.52542,-0.52542 -0.52543,-1.70377 0,-2.22919 0.26271,-0.26272 0.85188,0.26271 1.1146,0 0.52542,-0.52543 -0.52543,-1.70377 0,-2.2292 0.26271,-0.26271 0.85188,0.26272 1.11459,0 0.26272,-0.26271 -0.16615,-0.78229 0,-1.1146 0.23498,-0.46995 0.87962,-0.64464 1.1146,-1.11459 0.16615,-0.33231 -0.26271,-0.85189 0,-1.1146 0.26271,-0.26271 0.85188,0.26271 1.1146,0 0.26271,-0.26271 -0.16616,-0.78229 0,-1.1146 0.23498,-0.46995 0.87962,-0.64464 1.1146,-1.1146 0.16615,-0.3323 -0.16616,-0.78228 0,-1.11459 0.23497,-0.46996 0.87962,-0.64465 1.11459,-1.1146 0.33231,-0.66462 -0.52542,-1.70377 0,-2.2292 0.26272,-0.26271 0.85189,0.26272 1.1146,0 0.52543,-0.52542 -0.33231,-1.56457 0,-2.22919 0.23498,-0.46996 1.1146,-0.58917 1.1146,-1.1146 0,-0.37153 -0.74307,0 -1.1146,0 -0.37153,0 -0.74306,0 -1.1146,0 -0.37153,0 -0.85188,-0.26271 -1.11459,0 -0.26272,0.26271 0.26271,0.85189 0,1.1146 -0.11407,0.11406 -2.96246,-0.0763 -3.3438,0 -1.50212,0.30042 -2.97226,0.74306 -4.45839,1.1146 z"
       id="path3145"
       inkscape:connector-curvature="0" />
    <path
       style="fill:none;stroke:#000000;stroke-width:1px;stroke-linecap:butt;stroke-linejoin:miter;stroke-opacity:1"
       d="m 423.54708,528.50132 c -0.37153,1.48613 0.37154,4.82992 -1.11459,4.45839 -1.48613,-0.37154 2.19779,-5.54159 1.11459,-4.45839 -1.41475,1.41475 -1.83681,3.61107 -2.22919,5.57298 -0.0729,0.36432 0.74306,0 1.1146,0 0.37153,0 1.04173,0.36432 1.11459,0 0.36432,-1.82158 0,-3.71532 0,-5.57298 z"
       id="path3147"
       inkscape:connector-curvature="0" />
    <path
       style="fill:none;stroke:#000000;stroke-width:1px;stroke-linecap:butt;stroke-linejoin:miter;stroke-opacity:1"
       d="m 388.99456,519.58454 c -0.37153,1.48613 -0.74307,2.97226 -1.1146,4.45839 -0.37153,0.37153 -0.87962,0.64464 -1.1146,1.11459 -0.16615,0.33231 0,0.74307 0,1.1146 0,0.37153 0,0.74307 0,1.1146 0,0.37153 -0.26271,0.85188 0,1.1146 0.26272,0.26271 0.74307,0 1.1146,0 0.50197,0 3.00458,0.1696 3.34379,0 0.46996,-0.23498 0.64465,-0.87962 1.1146,-1.1146 0.66462,-0.33231 1.70377,0.52543 2.2292,0 0.26271,-0.26271 -0.26272,-0.85189 0,-1.1146 0.26271,-0.26271 0.85188,0.26271 1.11459,0 0.26272,-0.26271 -0.16615,-0.78229 0,-1.1146 0.23498,-0.46995 0.87962,-0.64464 1.1146,-1.11459 0.16616,-0.33231 -0.26271,-0.85189 0,-1.1146 0.26271,-0.26271 0.85189,0.26271 1.1146,0 0.26271,-0.26271 0.26271,-0.85189 0,-1.1146 -0.26271,-0.26271 -0.85189,0.26271 -1.1146,0 -0.26271,-0.26271 0.26271,-0.85188 0,-1.1146 -0.52543,-0.52542 -1.56458,0.33231 -2.22919,0 -4.3309,-2.16545 5.53564,-1.11459 -5.57299,-1.11459 z"
       id="path3149"
       inkscape:connector-curvature="0" />
    <path
       style="fill:none;stroke:#000000;stroke-width:1px;stroke-linecap:butt;stroke-linejoin:miter;stroke-opacity:1"
       d="m 383.42157,526.27212 c -2.79664,-1.2187 -5.0074,-1.1146 -7.80218,-1.1146 -0.74307,0 -1.50832,0.18022 -2.2292,0 -0.80597,-0.20149 -1.44105,-0.85188 -2.22919,-1.11459 -0.64566,-0.21522 -3.4925,0 -4.45839,0 -0.59544,0 -5.25399,0.1595 -5.57299,0 -2.75462,-1.37731 0.38473,-1.1146 -2.2292,-1.1146 -2.22919,0 -4.45839,0 -6.68758,0 -0.37153,0 -0.74307,0 -1.1146,0 -0.37153,0 -0.78229,0.16615 -1.1146,0 -0.46995,-0.23498 -0.64464,-0.87962 -1.1146,-1.1146 -0.66461,-0.33231 -1.56457,0.33231 -2.22919,0 -0.46996,-0.23498 -0.64464,-0.87962 -1.1146,-1.1146 -0.66462,-0.33231 -1.56458,0.33231 -2.22919,0 -0.46996,-0.23497 -0.64464,-0.87962 -1.1146,-1.11459 -0.66462,-0.33231 -1.52426,0.23497 -2.2292,0 -0.78814,-0.26272 -1.44105,-0.85189 -2.22919,-1.1146 -0.35247,-0.11749 -0.78229,0.16615 -1.1146,0 -0.46995,-0.23498 -0.64464,-0.87962 -1.1146,-1.1146 -0.33921,-0.1696 -2.84182,0 -3.34379,0"
       id="path3151"
       inkscape:connector-curvature="0" />
    <g
       id="g3191"
       transform="matrix(1,0,0,1.3381815,0,-178.72937)">
      <path
         inkscape:connector-curvature="0"
         id="path3113"
         d="m 222.91952,531.84511 c -1.20471,4.81883 -1.1146,2.92652 -1.1146,5.57299 0,0.37153 0.16615,0.78228 0,1.11459 -0.23498,0.46996 -0.87962,0.64464 -1.1146,1.1146 -0.33231,0.66462 0.33231,1.56458 0,2.2292 -0.23498,0.46995 -0.87962,0.64464 -1.1146,1.11459 -0.3323,0.66462 0.33231,1.56458 0,2.2292 -0.23497,0.46995 -0.87961,0.64464 -1.11459,1.1146 -0.33231,0.66461 0.33231,1.56457 0,2.22919 -0.23498,0.46996 -0.87962,0.64464 -1.1146,1.1146 -0.16615,0.33231 0.16615,0.78229 0,1.1146 -0.23498,0.46995 -0.87962,0.64464 -1.1146,1.11459 -0.44584,0.89168 0.44584,2.45212 0,3.3438 -0.23498,0.46995 -0.87962,0.64464 -1.1146,1.11459 -0.3323,0.66462 0.52543,1.70377 0,2.2292 -0.26271,0.26271 -0.85188,-0.26271 -1.11459,0 -0.30498,0.30498 0.30232,3.85373 0,4.45839 -0.23498,0.46996 -0.87962,0.64464 -1.1146,1.1146 -0.16961,0.33921 0,2.84182 0,3.34379 0,0.37153 -0.26271,0.85188 0,1.1146 0.26271,0.26271 0.85188,-0.26272 1.1146,0 0.26271,0.26271 -0.26272,0.85188 0,1.1146 0.26271,0.26271 0.85188,0.26271 1.11459,0 0.26272,-0.26272 -0.26271,-0.85189 0,-1.1146 0.0449,-0.0449 4.04907,0 4.45839,0 4.4584,0 8.91679,0 13.37518,0 0.77524,0 5.16991,0.20154 5.57298,0 0.46996,-0.23498 0.64465,-0.87962 1.1146,-1.1146 0.33231,-0.16615 0.74307,0 1.1146,0 0.37153,0 0.74306,0 1.1146,0 1.85766,0 3.71532,0 5.57298,0 0.37154,0 0.74307,0 1.1146,0 0.37153,0 0.78229,0.16615 1.1146,0 0.46996,-0.23498 0.64464,-0.87962 1.1146,-1.1146 0.66461,-0.33231 1.56457,0.33231 2.22919,0 0.46996,-0.23498 0.64464,-0.87962 1.1146,-1.11459 0.33231,-0.16616 0.78229,0.16615 1.1146,0 0.46995,-0.23498 0.64464,-0.87962 1.1146,-1.1146 0.60465,-0.30233 4.15341,0.30498 4.45839,0 0.26271,-0.26272 -0.26272,-0.85189 0,-1.1146 0.26271,-0.26271 0.85188,0.26271 1.11459,0 0.26272,-0.26271 0,-0.74307 0,-1.1146 0,-0.37153 0.16616,-0.78229 0,-1.1146 -0.23497,-0.46995 -0.87962,-0.64464 -1.11459,-1.11459 -0.16616,-0.33231 0.26271,-0.85189 0,-1.1146 -0.26272,-0.26271 -0.85189,0.26271 -1.1146,0 -0.52543,-0.52543 0.33231,-1.56458 0,-2.2292 -0.23498,-0.46995 -0.87962,-0.64464 -1.1146,-1.11459 0,-2.97226 0.37153,0.37153 -1.1146,-1.1146 -0.52542,-0.52543 0.33231,-1.56458 0,-2.2292 -0.66876,-1.33751 -2.67503,-2.00627 -3.34379,-3.34379 -0.16615,-0.33231 0.26271,-0.85188 0,-1.1146 -0.26271,-0.26271 -0.85188,0.26272 -1.1146,0 -0.26271,-0.26271 0.26272,-0.85188 0,-1.11459 -0.26271,-0.26272 -0.78229,0.16615 -1.1146,0 -0.46995,-0.23498 -0.74306,-0.74307 -1.11459,-1.1146 -0.37154,-0.37153 -0.87962,-0.64464 -1.1146,-1.1146 -0.16615,-0.33231 0.16615,-0.78229 0,-1.1146 -0.46996,-0.93991 -1.75924,-1.28928 -2.2292,-2.22919 -0.16615,-0.33231 0.26272,-0.85189 0,-1.1146 -0.26271,-0.26271 -0.85188,0.26271 -1.11459,0 -0.26272,-0.26271 0.26271,-0.85188 0,-1.1146 -0.26272,-0.26271 -0.85189,0.26272 -1.1146,0 -0.26271,-0.26271 0.26271,-0.85188 0,-1.11459 -0.26271,-0.26272 -0.85189,0.26271 -1.1146,0 -0.26271,-0.26272 0.16616,-0.78229 0,-1.1146 -0.23498,-0.46996 -0.87962,-0.64464 -1.1146,-1.1146 -0.16615,-0.33231 0.26272,-0.85188 0,-1.1146 -0.26271,-0.26271 -0.85188,0.26272 -1.11459,0 -0.26272,-0.26271 0.16615,-0.78229 0,-1.11459 -0.23498,-0.46996 -0.87962,-0.64465 -1.1146,-1.1146 -0.33231,-0.66462 0.52543,-1.70377 0,-2.2292 -0.26271,-0.26271 -0.85189,0.26272 -1.1146,0 -0.26271,-0.26271 0.26271,-0.85188 0,-1.1146 -0.0358,-0.0358 -3.07347,0 -3.34379,0 -2.97226,0 0.37153,-0.37153 -1.1146,1.1146 -0.26821,0.26821 -4.19018,-0.2682 -4.45839,0 -0.26271,0.26272 0.26271,0.85189 0,1.1146 -0.089,0.089 -1.78374,-0.0742 -2.22919,0 -1.86868,0.31145 -3.71533,0.74306 -5.57299,1.1146 z"
         style="fill:#000000;stroke:#000000;stroke-width:1px;stroke-linecap:butt;stroke-linejoin:miter;stroke-opacity:1" />
      <path
         inkscape:connector-curvature="0"
         id="path3115"
         d="m 221.80491,532.9597 c 0,2.60073 0,5.20146 0,7.80218 0,0.37154 -0.16615,0.78229 0,1.1146 0.23498,0.46996 0.87962,0.64464 1.1146,1.1146 0.16615,0.33231 0.37153,1.1146 0,1.1146 -0.37153,0 -0.26271,-0.85189 0,-1.1146 0.26271,-0.26271 0.85188,0.26271 1.1146,0 0.26271,-0.26271 -0.26272,-0.85189 0,-1.1146 0.26271,-0.26271 0.85188,0.26271 1.1146,0 0.26271,-0.26271 -0.16616,-0.78229 0,-1.1146 0.32112,-0.64224 1.86143,-1.10894 1.11459,-2.22919 -1.31961,-1.97942 -5.52229,-3.44518 -4.45839,-5.57299 0.96884,-1.93768 3.63531,2.37495 5.57299,3.34379 0.66462,0.33231 1.70377,-0.52542 2.2292,0 0.52542,0.52543 -0.52543,1.70377 0,2.2292 0.26271,0.26271 0.85188,-0.26272 1.11459,0 0.26272,0.26271 -0.26271,0.85188 0,1.1146 0.26272,0.26271 0.85189,-0.26272 1.1146,0 0.26271,0.26271 -0.26271,0.85188 0,1.11459 0.26271,0.26272 0.85189,0.26272 1.1146,0 0.5573,-0.5573 -0.5573,-2.78649 0,-3.34379 1.48613,-1.48613 1.1146,1.85766 1.1146,-1.1146 0,-0.37153 0,-0.74306 0,-1.11459 0,-0.37154 -0.26272,-0.85189 0,-1.1146 0.26271,-0.26272 0.85188,0.26271 1.11459,0 0.26272,-0.26272 -0.26271,-0.85189 0,-1.1146 0.26272,-0.26271 0.85189,0.26271 1.1146,0 0.52543,-0.52543 -0.52542,-1.70377 0,-2.22919 0.26271,-0.26272 0.85189,0.26271 1.1146,0 0.52543,-0.52543 -0.52543,-1.70377 0,-2.2292 0.26271,-0.26271 1.1146,-0.37153 1.1146,0 0,0.37153 -0.74307,0 -1.1146,0"
         style="fill:#ffffff;stroke:#000000;stroke-width:1px;stroke-linecap:butt;stroke-linejoin:miter;stroke-opacity:1" />
      <path
         inkscape:connector-curvature="0"
         id="path3117"
         d="m 214.00273,570.85602 c -1.71208,-3.81582 2.37495,-3.63531 3.34379,-5.57299 0.16616,-0.33231 -0.16615,-0.78229 0,-1.1146 0.23498,-0.46995 0.74307,-0.74306 1.1146,-1.11459 0.37153,-0.37154 0.64464,-0.87962 1.1146,-1.1146 0.33231,-0.16615 0.85188,0.26271 1.11459,0 0.26272,-0.26271 -0.26271,-0.85188 0,-1.1146 0.26272,-0.26271 0.85189,0.26272 1.1146,0 0.26272,-0.26271 -0.26271,-0.85188 0,-1.1146 0.26272,-0.26271 0.85189,-0.26271 1.1146,0 0.26271,0.26272 -0.26271,0.85189 0,1.1146 0.26271,0.26272 0.85188,-0.26271 1.1146,0 0.26271,0.26272 -0.26272,0.85189 0,1.1146 0.26271,0.26271 0.85188,-0.26271 1.1146,0 0.26271,0.26271 -0.26272,0.85188 0,1.1146 0.52542,0.52542 1.56457,-0.33231 2.22919,0 0.46996,0.23497 0.64464,0.87962 1.1146,1.11459 0.33231,0.16616 0.78229,-0.16615 1.1146,0 0.46995,0.23498 0.64464,0.87962 1.11459,1.1146 0.33231,0.16616 0.78229,-0.16615 1.1146,0 0.32192,0.16096 1.90727,2.06824 2.2292,2.2292 0.3323,0.16615 0.85188,0.26271 1.11459,0 0.52543,-0.52543 -0.33231,-1.56458 0,-2.2292 0.23498,-0.46995 0.87962,-0.64464 1.1146,-1.1146 0.33231,-0.66461 -0.33231,-1.56457 0,-2.22919 0.23498,-0.46996 0.87962,-0.64464 1.1146,-1.1146 0.74306,-1.48613 -1.1146,-1.1146 1.1146,-1.1146 2.97226,0 -0.37154,-0.37153 1.11459,1.1146 0.26272,0.26272 0.78229,-0.16615 1.1146,0 0.46996,0.23498 0.64464,0.87962 1.1146,1.1146 0.66462,0.33231 1.56458,-0.33231 2.22919,0 0.46996,0.23498 0.64465,0.87962 1.1146,1.1146 0.89168,0.44584 2.45212,-0.44584 3.34379,0 0.46996,0.23497 0.64465,0.87962 1.1146,1.11459 0.44193,0.22097 3.11593,-0.22786 3.34379,0 0.26272,0.26272 -0.26271,0.85189 0,1.1146 0.26272,0.26272 0.85189,0.26272 1.1146,0 0.26821,-0.2682 -0.2682,-4.19018 0,-4.45839 0.26272,-0.26271 0.74307,0 1.1146,0 0.37153,0 0.85188,-0.26271 1.1146,0 0.52542,0.52543 -0.52543,1.70377 0,2.2292 0.26271,0.26271 0.85188,-0.26272 1.1146,0 0.26271,0.26271 -0.26272,0.85188 0,1.11459 0.26271,0.26272 0.78228,-0.16615 1.11459,0 0.46996,0.23498 0.64464,0.87962 1.1146,1.1146 0.33231,0.16616 0.85188,-0.26271 1.1146,0 0.26271,0.26272 0.26271,0.85189 0,1.1146 -0.52543,0.52543 -1.56458,-0.33231 -2.2292,0 -0.46995,0.23498 -0.64464,0.87962 -1.11459,1.1146 -0.33231,0.16615 -0.78229,-0.16616 -1.1146,0 -0.46996,0.23498 -0.64464,0.87962 -1.1146,1.1146 -0.33231,0.16615 -0.74307,0 -1.1146,0 -0.37153,0 -0.78229,0.16615 -1.1146,0 -0.46995,-0.23498 -0.64464,-0.87962 -1.11459,-1.1146 -0.3552,-0.1776 -4.57685,0 -5.57299,0 -1.85766,0 -3.71533,0 -5.57299,0 -0.73241,0 -2.71494,-0.20962 -3.34379,0 -0.78814,0.26271 -1.44106,0.85188 -2.2292,1.1146 -0.60322,0.20107 -4.07867,0 -4.45839,0 -2.60072,0 -5.20145,0 -7.80218,0 -0.37153,0 -0.74307,0 -1.1146,0 -0.37153,0 -0.85188,-0.26272 -1.1146,0 -0.26271,0.26271 0.26272,0.85188 0,1.11459 -0.26271,0.26272 -0.74812,-0.0611 -1.11459,0 -1.86868,0.31145 -3.71533,0.74307 -5.57299,1.1146 z"
         style="fill:#ffffff;stroke:#000000;stroke-width:1px;stroke-linecap:butt;stroke-linejoin:miter;stroke-opacity:1" />
    </g>
    <path
       style="fill:none;stroke:#000000;stroke-width:1px;stroke-linecap:butt;stroke-linejoin:miter;stroke-opacity:1"
       d="m 378.96318,534.0743 c -1.85766,-0.37153 -3.71533,-0.74306 -5.57299,-1.11459 -0.37153,-0.37154 -0.64464,-0.87962 -1.1146,-1.1146 -0.3323,-0.16616 -0.78228,0.16615 -1.11459,0 -0.46996,-0.23498 -0.61614,-0.94844 -1.1146,-1.1146 -1.18439,-0.39479 -3.27401,0.3948 -4.45839,0 -0.78814,-0.26271 -1.42323,-0.9131 -2.2292,-1.1146 -1.08131,-0.27033 -2.22919,0 -3.34379,0 -2.22919,0 -4.45839,0 -6.68758,0 -0.40933,0 -4.41354,-0.0448 -4.4584,0 -0.26271,0.26272 0.26272,0.85189 0,1.1146 -0.8713,0.87131 -1.93901,-0.9695 -2.22919,-1.1146 -0.33921,-0.1696 -2.84183,0 -3.34379,0 -1.1146,0 -2.2292,0 -3.3438,0 -0.37153,0 -1.11459,0.37154 -1.11459,0 0,-0.37153 0.74306,0 1.11459,0 0.37154,0 0.74307,0 1.1146,0"
       id="path3153"
       inkscape:connector-curvature="0" />
    <path
       style="fill:none;stroke:#000000;stroke-width:1px;stroke-linecap:butt;stroke-linejoin:miter;stroke-opacity:1"
       d="m 377.84858,540.76189 c 0.19314,-1.92551 -7.07735,-0.75218 -7.80218,-1.1146 -0.46996,-0.23498 -0.64464,-0.87962 -1.1146,-1.1146 -0.29307,-0.14653 -3.87554,0 -4.45839,0 -4.45839,0 -8.91678,0 -13.37517,0 -2.2292,0 -4.45839,0 -6.68759,0 -0.37153,0 -0.85188,-0.26271 -1.11459,0 -0.26272,0.26272 0.26271,0.85189 0,1.1146 -0.39125,0.39125 -4.8031,-0.38494 -5.57299,0 -2.75462,1.37731 0.38473,1.1146 -2.2292,1.1146"
       id="path3155"
       inkscape:connector-curvature="0" />
    <path
       style="fill:none;stroke:#000000;stroke-width:1px;stroke-linecap:butt;stroke-linejoin:miter;stroke-opacity:1"
       d="m 426.89088,534.0743 c 1.85766,-0.37153 3.71532,-0.74306 5.57298,-1.11459 0.74307,-0.37154 1.42323,-0.91311 2.2292,-1.1146 0.72088,-0.18022 1.50832,0.18022 2.22919,0 0.80597,-0.20149 1.42323,-0.91311 2.2292,-1.1146 1.44176,-0.36044 3.01663,0.36044 4.45839,0 0.80597,-0.20149 1.42323,-0.9131 2.2292,-1.1146 1.44175,-0.36044 3.01663,0.36044 4.45839,0 0.80596,-0.20149 1.42322,-0.9131 2.22919,-1.11459 0.99509,-0.24878 4.28281,0 5.57299,0 0.37153,0 0.74306,0 1.1146,0 0.37153,0 0.78228,0.16615 1.11459,0 0.46996,-0.23498 0.64465,-0.87962 1.1146,-1.1146 0.29308,-0.14654 3.87555,0 4.45839,0"
       id="path3157"
       inkscape:connector-curvature="0" />
    <path
       style="fill:none;stroke:#000000;stroke-width:1px;stroke-linecap:butt;stroke-linejoin:miter;stroke-opacity:1"
       d="m 430.23467,541.87649 c 0.32097,0.78473 6.49297,-0.43641 7.80218,0 0.49847,0.16615 0.61614,0.94844 1.1146,1.1146 1.31968,0.43989 3.13871,-0.4399 4.45839,0 0.49846,0.16615 0.61613,0.94844 1.1146,1.11459 1.00314,0.33438 2.34065,-0.33438 3.34379,0 0.78814,0.26272 1.42323,0.91311 2.2292,1.1146 1.08131,0.27033 2.22919,0 3.34379,0 1.48613,0 2.97226,0 4.45839,0 0.37153,0 0.74306,0 1.1146,0 0.37153,0 1.11459,-0.37153 1.11459,0 0,0.37153 -0.74306,0 -1.11459,0 -0.37154,0 -0.74307,0 -1.1146,0"
       id="path3159"
       inkscape:connector-curvature="0" />
    <path
       style="fill:none;stroke:#000000;stroke-width:1px;stroke-linecap:butt;stroke-linejoin:miter;stroke-opacity:1"
       d="m 432.46386,537.4181 c 1.07319,-3.32309 3.91145,0.83077 5.57299,0 0.46996,-0.23498 0.64464,-0.87962 1.1146,-1.1146 0.33231,-0.16615 0.74306,0 1.1146,0 0.37153,0 0.74306,0 1.11459,0 0.50197,0 3.00459,0.1696 3.3438,0 0.46995,-0.23498 0.64464,-0.87962 1.1146,-1.1146 1.30696,-0.65348 1.3229,0.66145 2.22919,1.1146 0.28818,0.14409 5.89756,0 6.68759,0 1.85766,0 3.71532,0 5.57298,0 0.74307,0 1.48613,0 2.2292,0 0.37153,0 1.1146,-0.37153 1.1146,0 0,0.37153 -0.74307,0 -1.1146,0"
       id="path3161"
       inkscape:connector-curvature="0" />
    <path
       style="fill:none;stroke:#000000;stroke-width:1px;stroke-linecap:butt;stroke-linejoin:miter;stroke-opacity:1"
       d="m 409.05731,530.73051 c -1.48613,1.1146 -2.97226,2.2292 -4.45839,3.34379 -0.37153,0 -0.78228,-0.16615 -1.11459,0 -0.46996,0.23498 -0.64465,0.87962 -1.1146,1.1146 -0.66462,0.33231 -1.56458,-0.33231 -2.2292,0 -0.46995,0.23498 -0.64464,0.87962 -1.11459,1.1146 -0.44193,0.22096 -3.11593,-0.22786 -3.3438,0 -0.26271,0.26271 0.26272,0.85188 0,1.1146 -0.26271,0.26271 -0.85188,0.26271 -1.11459,0 -0.26272,-0.26272 0.26271,-0.85189 0,-1.1146 -0.26272,-0.26271 -0.74307,0 -1.1146,0"
       id="path3163"
       inkscape:connector-curvature="0" />
    <path
       style="fill:none;stroke:#000000;stroke-width:1px;stroke-linecap:butt;stroke-linejoin:miter;stroke-opacity:1"
       d="m 410.17191,535.1889 c 0.74307,1.48613 3.71533,3.71533 2.2292,4.45839 -1.48613,0.74307 -3.89074,-4.45839 -2.2292,-4.45839 14.23698,-3.95718 2.77621,3.8908 4.45839,5.57299 0.52543,0.52543 1.56458,-0.33231 2.2292,0 0.46995,0.23498 0.64464,0.87962 1.1146,1.1146 0.3323,0.16615 0.74306,0 1.11459,0 0.37154,0 0.74307,0 1.1146,0"
       id="path3165"
       inkscape:connector-curvature="0" />
    <path
       style="fill:none;stroke:#000000;stroke-width:1px;stroke-linecap:butt;stroke-linejoin:miter;stroke-opacity:1"
       d="m 420.20329,520.69913 c 3.81684,1.16433 3.44517,-3.39448 5.57299,-4.45839 0.33231,-0.16615 0.78229,0.16616 1.1146,0 0.46995,-0.23497 0.64464,-0.87962 1.11459,-1.11459 0.33231,-0.16616 0.78229,0.16615 1.1146,0 1.33752,-0.66876 2.00628,-2.67504 3.34379,-3.3438 0.33231,-0.16615 0.85189,0.26272 1.1146,0 0.26271,-0.26271 -0.26271,-0.85188 0,-1.1146 0.26271,-0.26271 0.78229,0.16616 1.1146,0 0.46995,-0.23497 0.64464,-0.87961 1.1146,-1.11459 0.33231,-0.16616 0.78229,0.16615 1.11459,0 0.93992,-0.46996 1.28929,-1.75924 2.2292,-2.2292 0.66462,-0.33231 1.70377,0.52543 2.22919,0 0.26272,-0.26271 -0.26271,-0.85188 0,-1.1146 0.26272,-0.26271 0.74307,0 1.1146,0 0.37153,0 0.74307,0 1.1146,0"
       id="path3167"
       inkscape:connector-curvature="0" />
    <path
       style="fill:none;stroke:#000000;stroke-width:1px;stroke-linecap:butt;stroke-linejoin:miter;stroke-opacity:1"
       d="m 401.25513,515.12615 c -6.72793,0.56959 0.22498,-4.23341 -1.1146,-5.57299 -0.26271,-0.26272 -0.78228,0.16615 -1.11459,0 -0.46996,-0.23498 -0.64465,-0.87962 -1.1146,-1.1146 -0.33231,-0.16615 -0.85189,0.26271 -1.1146,0 -0.26271,-0.26271 0.16616,-0.78229 0,-1.1146 -0.23498,-0.46995 -0.87962,-0.64464 -1.1146,-1.1146 -0.16615,-0.3323 0.26272,-0.85188 0,-1.11459 -0.26271,-0.26272 -0.85188,0.26271 -1.11459,0 -0.26272,-0.26272 0.26271,-0.85189 0,-1.1146 -0.26272,-0.26271 -0.85189,0.26271 -1.1146,0 -0.26271,-0.26271 0.26271,-0.85188 0,-1.1146 -0.26271,-0.26271 -0.78229,0.16616 -1.1146,0 -3.69665,-3.69665 1.05085,0.52543 -2.22919,-1.1146 -0.46996,-0.23497 -0.64465,-0.87962 -1.1146,-1.11459 -0.33231,-0.16616 -0.85189,0.26271 -1.1146,0 -0.26271,-0.26272 0.26271,-0.85189 0,-1.1146 -1.64002,0 -0.85188,0.26271 -2.22919,-1.1146"
       id="path3169"
       inkscape:connector-curvature="0" />
    <path
       style="fill:none;stroke:#000000;stroke-width:1px;stroke-linecap:butt;stroke-linejoin:miter;stroke-opacity:1"
       d="m 368.9318,481.68822 c 3.20789,0.72095 3.67954,-2.99033 2.2718,-4.92493 0.49825,-2.59632 3.53659,-3.99795 3.47892,-6.88681 0.91168,-0.71127 2.19468,-4.60309 3.47224,-2.77702 0.76872,2.04576 2.66888,4.05325 1.76826,6.45504 1.41374,1.88538 0.98653,4.1346 2.4156,5.91766 0.24631,2.44144 2.4264,5.14842 3.32665,6.1982 l -0.0149,0.47625"
       id="path3171"
       inkscape:connector-curvature="0" />
    <path
       style="fill:none;stroke:#000000;stroke-width:1px;stroke-linecap:butt;stroke-linejoin:miter;stroke-opacity:1"
       d="m 438.03685,489.4904 c 1.48613,-0.74306 2.97226,-1.48613 4.45839,-2.22919 2.01342,-0.50221 4.10347,-1.64065 5.69668,-2.90288 -0.0191,-1.08279 2.75266,0.36416 2.28559,-1.54766 1.11707,0.13848 2.45628,-0.009 2.38294,-1.26965 1.62648,0.0903 0.60404,1.76335 -0.28575,1.57858 0.28666,1.26213 -0.49795,2.08938 -1.11245,2.38115 -0.44912,0.98991 -1.67652,1.07199 -1.13787,2.59755 -0.0288,2.15135 -1.97786,3.55113 -1.22206,5.90889 0.17596,1.6007 0.53591,3.29833 -1.1617,3.83079 0.42338,0.72631 -0.58173,1.2516 -0.98694,1.6838"
       id="path3173"
       inkscape:connector-curvature="0" />
    <path
       style="fill:#00c000;stroke:#000000;stroke-width:1px;stroke-linecap:butt;stroke-linejoin:miter;stroke-opacity:1"
       d="m 419.08869,496.17799 c -1.48613,-1.48613 -2.97226,-2.97226 -4.45839,-4.45839 -2.7611,-1.06504 -5.5685,-2.32621 -8.18641,-3.30227 -1.96769,1.51364 -2.66742,3.71088 -3.6535,5.77336 -1.77542,-1.62395 -0.97952,3.31446 -3.32696,1.97665 -0.66467,1.71088 -2.04995,0.89602 0.0126,1.21044 2.67648,2.26253 6.53472,-0.0365 9.19083,2.43436 3.55602,0.92451 6.95338,2.38706 10.4387,3.4118 0.69558,1.48481 3.35911,0.0775 4.07212,1.81643 2.58265,0.42609 5.39606,0.18659 7.31375,-1.79543 2.80984,-2.72611 -2.97742,-3.66455 -4.81504,-4.66499 -2.31212,-0.44333 -4.42239,-1.52646 -6.58766,-2.40196 z"
       id="path3175"
       inkscape:connector-curvature="0" />
    <path
       style="fill:#30d400;stroke:#000000;stroke-width:1px;stroke-linecap:butt;stroke-linejoin:miter;stroke-opacity:1"
       d="m 366.70261,505.09477 c -2.06679,2.86145 0.97898,7.76299 3.70145,3.63956 2.81033,-0.8128 1.79095,3.05434 2.67253,4.47203 -1.04709,2.98556 -1.8952,5.56861 -2.96871,8.56221 -1.26131,2.88828 -1.45906,5.98456 -1.13276,9.09983 -0.46207,4.27383 5.88566,1.56961 5.8642,-1.42636 3.82799,-0.60688 2.25456,-6.29561 4.61294,-8.66548 3.43978,0.62371 2.40443,-4.58779 3.60521,-6.78945 3.67313,-2.50363 0.52494,-8.7505 -3.57938,-8.77473 -2.72251,-1.23118 -6.64504,-3.11382 -9.43456,-0.91228 -1.0732,0.42724 -2.27252,0.35177 -3.34092,0.79467 z"
       id="path3177"
       inkscape:connector-curvature="0" />
    <path
       style="fill:#ffffff;stroke:#000000;stroke-width:1px;stroke-linecap:butt;stroke-linejoin:miter;stroke-opacity:1"
       d="m 467.01639,740.27486 c -0.74307,1.48613 -1.61211,2.91568 -2.2292,4.45839 -0.13798,0.34496 0,0.74306 0,1.1146 0,0.74306 0,1.48613 0,2.22919 0,2.2292 0,4.45839 0,6.68759 0,0.74306 0,1.48613 0,2.22919 0,0.37153 0.37154,1.1146 0,1.1146 -0.37153,0 -0.26271,-0.85188 0,-1.1146 0.26272,-0.26271 0.85189,0.26272 1.1146,0 0.26271,-0.26271 -0.26271,-0.85188 0,-1.1146 0.26271,-0.26271 0.85189,0.26272 1.1146,0 0.26271,-0.26271 -0.16616,-0.78228 0,-1.11459 0.23498,-0.46996 0.87962,-0.64465 1.1146,-1.1146 0.16615,-0.33231 -0.26272,-0.85189 0,-1.1146 0.26271,-0.26271 0.85188,0.26271 1.11459,0 0.26272,-0.26271 -0.16615,-0.78229 0,-1.1146 0.23498,-0.46995 0.87962,-0.64464 1.1146,-1.11459 0.0475,-0.095 0.0475,-4.36338 0,-4.45839 -0.96884,-1.93768 -4.87566,-4.04112 -3.34379,-5.57299 1.53187,-1.53187 3.51777,2.65872 5.57299,3.34379 1.58428,0.52809 0.96824,-1.93649 1.11459,-2.22919 0.1451,-0.29019 1.98591,-1.35789 1.1146,-2.2292 -0.26271,-0.26271 -0.74306,0 -1.1146,0 -0.37153,0 -0.74812,-0.0611 -1.11459,0 -1.86868,0.31145 -3.71533,0.74307 -5.57299,1.1146 z"
       id="path3179"
       inkscape:connector-curvature="0" />
    <path
       style="fill:none;stroke:#000000;stroke-width:1px;stroke-linecap:butt;stroke-linejoin:miter;stroke-opacity:1"
       d="m 479.27696,738.04566 c 0.15702,1.3392 2.67183,3.61233 0.87921,4.35577 -1.21086,-0.60517 -2.14033,-3.76354 -0.72472,-4.23275 1.29832,1.55612 1.50003,3.70618 2.09767,5.58829 -0.70549,1.40967 1.65391,0.58292 1.14749,1.95582 1.28045,1.23821 1.09768,3.10676 1.82431,4.71891 0.5131,1.45941 0.28391,0.25441 0.53612,-0.45774 1.12873,1.1211 0.8467,3.12285 2.22874,4.07876 0.85946,0.80307 3.03767,0.6383 1.88195,2.40106 -0.12111,1.06077 3.42054,0.26847 1.68776,0.80112 -0.82455,-0.5465 1.56498,-0.18646 0.82803,-1.50467 -0.563,-1.52144 -1.9224,-2.74657 -1.15038,-4.57473 -0.0994,-1.42431 -1.94956,-2.35768 -1.05648,-3.89406 -0.75885,-0.38528 -1.67841,-0.48578 -1.39995,-1.45784 -1.69784,-1.20331 -0.31116,-3.3024 -1.95963,-4.47938 0.19011,-1.41189 -1.90921,-0.74609 -1.36178,-2.41561 0.27381,-1.39602 0.76454,-4.04885 -1.33606,-4.12842 -1.48132,0.71723 -2.59522,2.08889 -3.91704,3.08793 l -0.20527,0.15754 3e-5,0 z"
       id="path3181"
       inkscape:connector-curvature="0" />
    <path
       style="fill:#ffffff;stroke:#000000;stroke-width:1px;stroke-linecap:butt;stroke-linejoin:miter;stroke-opacity:1"
       d="m 494.88133,733.58727 c 1.06734,1.38657 2.89831,2.08686 3.68503,3.69261 0.008,1.28406 -1.6333,0.8864 -1.99618,-0.004 -0.88667,-1.07125 -1.6456,-2.32644 -1.96651,-3.68166 0.84244,0.14436 1.52947,1.54457 2.20968,2.24968 1.086,1.38067 1.99638,2.93916 3.36178,4.06414 0.60911,0.58007 -0.26042,2.04208 1.1621,1.43864 0.71046,0.0873 -0.34759,1.59582 0.8869,1.1808 1.55038,-0.16231 -0.67655,2.3693 0.97715,2.35121 0.42915,-0.24675 2.3505,-0.57722 1.28105,0.1047 -1.43236,-0.43518 -0.40429,-2.44621 -0.69479,-3.59213 0.008,-2.12299 0.14851,-4.25517 0.0708,-6.37203 -0.45672,-0.95634 -1.72559,-1.54354 -1.22686,-2.85336 0.009,-0.98151 0.22093,-1.96169 0.099,-2.94308 -0.89177,0.0307 -1.69478,-0.2336 -1.23776,-1.34785 0.58094,-0.89249 -0.38859,-2.95624 -1.29463,-1.66213 0.76293,0.93554 0.20795,2.63418 -1.11496,1.67871 -0.96403,-0.28207 -0.94259,0.66309 -0.86669,1.2261 -0.75943,0.005 -1.37481,0.0898 -1.57165,0.9435 -0.58786,1.17537 -1.17534,2.35141 -1.76344,3.52635 z"
       id="path3183"
       inkscape:connector-curvature="0" />
    <path
       style="fill:none;stroke:#000000;stroke-width:1px;stroke-linecap:butt;stroke-linejoin:miter;stroke-opacity:1"
       d="m 527.20466,742.50405 c 0,4.82993 0,9.65985 0,14.48977 0,0.74307 0,1.48613 0,2.2292 0,0.37153 -0.37153,1.11459 0,1.11459 0.52543,0 0.87962,-0.64464 1.1146,-1.11459 0.16615,-0.33231 -0.16616,-0.78229 0,-1.1146 0.23497,-0.46996 0.87962,-0.64464 1.11459,-1.1146 0.44584,-0.89168 -0.44583,-2.45211 0,-3.34379 0.23498,-0.46996 0.87962,-0.64464 1.1146,-1.1146 0.16961,-0.33921 0,-2.84182 0,-3.34379 0,-0.37153 0.16616,-0.78229 0,-1.1146 -0.96884,-1.93768 -4.14837,-3.56155 -3.34379,-5.57299 0.68992,-1.72479 3.7514,0.36432 5.57299,0 0.72863,-0.14572 -0.52543,-1.70377 0,-2.22919 0.26271,-0.26272 0.85188,0.26271 1.11459,0 0.52543,-0.52543 -0.3323,-1.56458 0,-2.2292 0.23498,-0.46995 1.1146,-0.58917 1.1146,-1.11459 0,-0.37154 -0.74306,0 -1.1146,0 -0.37153,0 -0.85188,-0.26272 -1.11459,0 -0.26272,0.26271 0,0.74306 0,1.11459 -1.85767,1.48613 -3.71533,2.97226 -5.57299,4.45839 z"
       id="path3185"
       inkscape:connector-curvature="0" />
    <path
       style="fill:#ffffff;stroke:#000000;stroke-width:1px;stroke-linecap:butt;stroke-linejoin:miter;stroke-opacity:1"
       d="m 540.57983,742.50405 c 1.5789,3.74363 1.02825,7.88088 1.06283,11.82674 0.47462,1.03825 1.7185,1.95719 1.22641,3.36324 -0.008,1.72251 -0.011,3.44592 -0.097,5.16673 -0.62951,1.52579 2.25527,0.99417 1.13196,-0.36657 -0.538,-1.4029 1.54982,-1.73943 1.18799,-3.01144 -0.83249,-1.48478 1.2412,-1.83036 1.12466,-3.17859 -0.6407,-1.38069 0.71995,-2.07006 1.18849,-3.14839 -0.9912,-1.47163 0.83237,-2.18818 1.04838,-3.44451 -0.12056,-3.56767 -0.0436,-7.13703 -0.0868,-10.70556 -0.56547,-0.92983 0.56763,-1.18532 0.18142,-0.0837 -1.03922,0.79403 -2.63642,-0.33908 -3.70623,0.64367 -1.35341,1.07701 -2.76591,2.06579 -4.26208,2.93842 z"
       id="path3187"
       inkscape:connector-curvature="0" />
    <path
       style="fill:#ffffff;stroke:#000000;stroke-width:1px;stroke-linecap:butt;stroke-linejoin:miter;stroke-opacity:1"
       d="m 559.52799,744.73325 c 1.13072,2.64925 1.1146,4.2125 1.1146,6.68758 0,0.37154 -0.26272,0.85189 0,1.1146 0.26271,0.26271 0.85188,-0.26271 1.11459,0 0.5573,0.5573 -0.55729,2.7865 0,3.34379 0.26272,0.26272 0.85189,-0.26271 1.1146,0 0.26271,0.26272 0,0.74307 0,1.1146 0,0.37153 0,0.74307 0,1.1146 0,0.37153 0.37153,1.1146 0,1.1146 -0.37153,0 -0.26271,-0.85189 0,-1.1146 0.26271,-0.26271 0.85189,0.26271 1.1146,0 0.26271,-0.26271 0,-0.74307 0,-1.1146 0,-0.37153 0,-0.74306 0,-1.1146 0,-0.50196 -0.16961,-3.00458 0,-3.34379 0.23498,-0.46995 0.87962,-0.64464 1.1146,-1.1146 0.33231,-0.66461 -0.52543,-1.70376 0,-2.22919 0.26271,-0.26271 0.85188,0.26271 1.11459,0 0.26272,-0.26271 -0.16615,-0.78229 0,-1.1146 0.23498,-0.46995 0.87962,-0.64464 1.1146,-1.1146 0.33231,-0.66461 -0.33231,-1.56457 0,-2.22919 0.23498,-0.46996 0.87962,-0.64464 1.1146,-1.1146 0.22096,-0.44193 -0.22786,-3.11593 0,-3.34379 0.26271,-0.26272 1.1146,-0.37153 1.1146,0 0,0.37153 -0.78229,-0.16616 -1.1146,0 -0.46996,0.23498 -0.64464,0.87962 -1.1146,1.1146 -0.33231,0.16615 -0.78229,-0.16616 -1.1146,0 -0.46995,0.23497 -0.74306,0.74306 -1.11459,1.11459 -1.85767,0.74307 -3.71533,1.48613 -5.57299,2.2292 z"
       id="path3189"
       inkscape:connector-curvature="0" />
    <text
       xml:space="preserve"
       style="font-size:61.43285751px;font-style:normal;font-weight:normal;line-height:125%;letter-spacing:0px;word-spacing:0px;fill:#000000;fill-opacity:1;stroke:none;font-family:Sans"
       x="263.62076"
       y="284.83084"
       id="text3266"
       sodipodi:linespacing="125%"
       transform="scale(0.65111736,1.5358214)"><tspan
         sodipodi:role="line"
         id="tspan3268"
         x="263.62076"
         y="284.83084"
         style="font-style:normal;font-variant:normal;font-weight:normal;font-stretch:normal;font-family:Monospace;-inkscape-font-specification:Monospace">Kitten World</tspan></text>
  </g>
</svg>
